<svg width="390" height="390" viewBox="0 0 390 390" fill="none" xmlns="http://www.w3.org/2000/svg">
<circle cx="195" cy="195" r="192" stroke="#F8BCBC" stroke-width="6"/>
<path d="M0 195C0 246.717 20.5446 296.316 57.1142 332.886C93.6838 369.455 143.283 390 195 390C246.717 390 296.316 369.455 332.886 332.886C369.455 296.316 390 246.717 390 195L195 195H0Z" fill="#F8BCBC"/>
<path d="M105.167 263H101.289L112.505 232.455H116.323L127.539 263H123.661L114.533 237.287H114.294L105.167 263ZM106.598 251.068H122.229V254.349H106.598V251.068ZM140.47 263.477C138.561 263.477 136.875 262.995 135.414 262.031C133.952 261.056 132.809 259.684 131.983 257.914C131.158 256.134 130.745 254.031 130.745 251.605C130.745 249.199 131.158 247.111 131.983 245.341C132.809 243.571 133.957 242.204 135.429 241.239C136.9 240.275 138.6 239.793 140.529 239.793C142.021 239.793 143.199 240.041 144.064 240.538C144.939 241.026 145.605 241.582 146.063 242.209C146.53 242.825 146.893 243.332 147.152 243.73H147.45V232.455H150.97V263H147.569V259.48H147.152C146.893 259.898 146.525 260.425 146.048 261.061C145.571 261.687 144.89 262.249 144.005 262.746C143.12 263.234 141.941 263.477 140.47 263.477ZM140.947 260.315C142.359 260.315 143.552 259.947 144.527 259.212C145.501 258.466 146.242 257.437 146.749 256.124C147.256 254.802 147.51 253.276 147.51 251.545C147.51 249.835 147.261 248.339 146.764 247.056C146.267 245.763 145.531 244.759 144.556 244.043C143.582 243.317 142.379 242.955 140.947 242.955C139.456 242.955 138.213 243.337 137.218 244.103C136.234 244.859 135.493 245.888 134.996 247.19C134.509 248.483 134.265 249.935 134.265 251.545C134.265 253.176 134.514 254.658 135.011 255.99C135.518 257.312 136.264 258.366 137.248 259.152C138.243 259.928 139.475 260.315 140.947 260.315ZM186.9 240.091C186.721 238.58 185.995 237.406 184.722 236.571C183.449 235.736 181.888 235.318 180.039 235.318C178.686 235.318 177.503 235.537 176.489 235.974C175.485 236.412 174.699 237.013 174.132 237.779C173.576 238.545 173.297 239.415 173.297 240.389C173.297 241.205 173.491 241.906 173.879 242.492C174.277 243.069 174.784 243.551 175.4 243.939C176.017 244.317 176.663 244.63 177.339 244.879C178.015 245.117 178.637 245.311 179.203 245.46L182.306 246.295C183.101 246.504 183.986 246.793 184.961 247.161C185.945 247.528 186.885 248.031 187.779 248.667C188.684 249.293 189.43 250.099 190.017 251.083C190.603 252.067 190.897 253.276 190.897 254.707C190.897 256.358 190.464 257.849 189.599 259.182C188.744 260.514 187.491 261.573 185.841 262.359C184.2 263.144 182.206 263.537 179.86 263.537C177.672 263.537 175.778 263.184 174.177 262.478C172.586 261.772 171.333 260.788 170.419 259.525C169.514 258.262 169.002 256.795 168.882 255.125H172.701C172.8 256.278 173.188 257.233 173.864 257.989C174.55 258.734 175.415 259.291 176.459 259.659C177.513 260.017 178.647 260.196 179.86 260.196C181.272 260.196 182.539 259.967 183.663 259.51C184.787 259.043 185.676 258.396 186.333 257.571C186.989 256.736 187.317 255.761 187.317 254.648C187.317 253.634 187.034 252.808 186.467 252.172C185.9 251.536 185.154 251.018 184.23 250.621C183.305 250.223 182.306 249.875 181.232 249.577L177.473 248.503C175.087 247.817 173.198 246.837 171.806 245.565C170.414 244.292 169.718 242.626 169.718 240.568C169.718 238.858 170.18 237.366 171.105 236.094C172.039 234.811 173.292 233.817 174.863 233.111C176.444 232.395 178.209 232.037 180.158 232.037C182.127 232.037 183.877 232.39 185.408 233.096C186.939 233.792 188.152 234.746 189.047 235.96C189.952 237.173 190.429 238.55 190.479 240.091H186.9ZM196.501 271.591V240.091H199.901V243.73H200.319C200.578 243.332 200.936 242.825 201.393 242.209C201.86 241.582 202.526 241.026 203.392 240.538C204.267 240.041 205.45 239.793 206.941 239.793C208.87 239.793 210.57 240.275 212.042 241.239C213.514 242.204 214.662 243.571 215.487 245.341C216.313 247.111 216.725 249.199 216.725 251.605C216.725 254.031 216.313 256.134 215.487 257.914C214.662 259.684 213.519 261.056 212.057 262.031C210.595 262.995 208.91 263.477 207.001 263.477C205.529 263.477 204.351 263.234 203.466 262.746C202.581 262.249 201.9 261.687 201.423 261.061C200.945 260.425 200.578 259.898 200.319 259.48H200.021V271.591H196.501ZM199.961 251.545C199.961 253.276 200.215 254.802 200.722 256.124C201.229 257.437 201.97 258.466 202.944 259.212C203.919 259.947 205.112 260.315 206.524 260.315C207.995 260.315 209.223 259.928 210.208 259.152C211.202 258.366 211.948 257.312 212.445 255.99C212.952 254.658 213.205 253.176 213.205 251.545C213.205 249.935 212.957 248.483 212.46 247.19C211.972 245.888 211.232 244.859 210.237 244.103C209.253 243.337 208.015 242.955 206.524 242.955C205.092 242.955 203.889 243.317 202.914 244.043C201.94 244.759 201.204 245.763 200.707 247.056C200.21 248.339 199.961 249.835 199.961 251.545ZM231.7 263.477C229.492 263.477 227.588 262.99 225.987 262.016C224.396 261.031 223.169 259.659 222.303 257.899C221.448 256.129 221.021 254.071 221.021 251.724C221.021 249.378 221.448 247.31 222.303 245.52C223.169 243.72 224.372 242.318 225.913 241.314C227.464 240.3 229.274 239.793 231.342 239.793C232.535 239.793 233.713 239.991 234.877 240.389C236.04 240.787 237.099 241.433 238.053 242.328C239.008 243.213 239.769 244.386 240.335 245.848C240.902 247.31 241.186 249.109 241.186 251.247V252.739H223.526V249.696H237.606C237.606 248.403 237.347 247.25 236.83 246.236C236.323 245.222 235.597 244.421 234.653 243.835C233.718 243.248 232.615 242.955 231.342 242.955C229.94 242.955 228.727 243.303 227.703 243.999C226.688 244.685 225.908 245.58 225.361 246.683C224.814 247.787 224.541 248.97 224.541 250.233V252.261C224.541 253.991 224.839 255.458 225.436 256.661C226.042 257.854 226.882 258.764 227.956 259.391C229.03 260.007 230.278 260.315 231.7 260.315C232.624 260.315 233.46 260.186 234.205 259.928C234.961 259.659 235.612 259.261 236.159 258.734C236.706 258.197 237.129 257.531 237.427 256.736L240.828 257.69C240.47 258.844 239.868 259.858 239.023 260.733C238.178 261.598 237.134 262.274 235.891 262.761C234.648 263.239 233.251 263.477 231.7 263.477ZM250.06 249.219V263H246.54V240.091H249.941V243.67H250.239C250.776 242.507 251.591 241.572 252.685 240.866C253.779 240.151 255.191 239.793 256.921 239.793C258.472 239.793 259.829 240.111 260.992 240.747C262.156 241.374 263.061 242.328 263.707 243.611C264.353 244.884 264.676 246.494 264.676 248.443V263H261.156V248.682C261.156 246.882 260.689 245.48 259.754 244.476C258.82 243.462 257.537 242.955 255.906 242.955C254.783 242.955 253.779 243.198 252.894 243.685C252.019 244.173 251.328 244.884 250.82 245.818C250.313 246.753 250.06 247.886 250.06 249.219ZM279.759 263.477C277.85 263.477 276.164 262.995 274.703 262.031C273.241 261.056 272.098 259.684 271.272 257.914C270.447 256.134 270.034 254.031 270.034 251.605C270.034 249.199 270.447 247.111 271.272 245.341C272.098 243.571 273.246 242.204 274.718 241.239C276.189 240.275 277.89 239.793 279.819 239.793C281.31 239.793 282.488 240.041 283.353 240.538C284.228 241.026 284.895 241.582 285.352 242.209C285.819 242.825 286.182 243.332 286.441 243.73H286.739V232.455H290.259V263H286.858V259.48H286.441C286.182 259.898 285.814 260.425 285.337 261.061C284.86 261.687 284.179 262.249 283.294 262.746C282.409 263.234 281.23 263.477 279.759 263.477ZM280.236 260.315C281.648 260.315 282.841 259.947 283.816 259.212C284.79 258.466 285.531 257.437 286.038 256.124C286.545 254.802 286.799 253.276 286.799 251.545C286.799 249.835 286.55 248.339 286.053 247.056C285.556 245.763 284.82 244.759 283.846 244.043C282.871 243.317 281.668 242.955 280.236 242.955C278.745 242.955 277.502 243.337 276.507 244.103C275.523 244.859 274.782 245.888 274.285 247.19C273.798 248.483 273.554 249.935 273.554 251.545C273.554 253.176 273.803 254.658 274.3 255.99C274.807 257.312 275.553 258.366 276.537 259.152C277.532 259.928 278.765 260.315 280.236 260.315ZM114.004 283.455H118.418L128.799 308.81H129.157L139.538 283.455H143.952V314H140.492V290.793H140.194L130.648 314H127.308L117.762 290.793H117.464V314H114.004V283.455ZM157.633 314.537C156.181 314.537 154.864 314.263 153.681 313.717C152.497 313.16 151.558 312.359 150.862 311.315C150.166 310.261 149.818 308.989 149.818 307.497C149.818 306.185 150.076 305.121 150.593 304.305C151.11 303.48 151.801 302.834 152.666 302.366C153.531 301.899 154.486 301.551 155.53 301.322C156.584 301.084 157.643 300.895 158.707 300.756C160.099 300.577 161.227 300.442 162.093 300.353C162.968 300.254 163.604 300.089 164.002 299.861C164.409 299.632 164.613 299.234 164.613 298.668V298.548C164.613 297.077 164.21 295.933 163.405 295.118C162.61 294.303 161.401 293.895 159.781 293.895C158.1 293.895 156.783 294.263 155.828 294.999C154.874 295.734 154.203 296.52 153.815 297.355L150.474 296.162C151.07 294.77 151.866 293.686 152.86 292.911C153.865 292.125 154.958 291.578 156.142 291.27C157.335 290.952 158.508 290.793 159.661 290.793C160.397 290.793 161.242 290.882 162.197 291.061C163.161 291.23 164.091 291.583 164.986 292.12C165.891 292.657 166.642 293.467 167.238 294.551C167.835 295.635 168.133 297.087 168.133 298.906V314H164.613V310.898H164.434C164.195 311.395 163.798 311.927 163.241 312.494C162.684 313.06 161.943 313.543 161.019 313.94C160.094 314.338 158.965 314.537 157.633 314.537ZM158.17 311.375C159.562 311.375 160.735 311.102 161.69 310.555C162.654 310.008 163.38 309.302 163.867 308.437C164.365 307.572 164.613 306.662 164.613 305.707V302.486C164.464 302.665 164.136 302.829 163.629 302.978C163.132 303.117 162.555 303.241 161.899 303.351C161.252 303.45 160.621 303.54 160.004 303.619C159.398 303.689 158.906 303.749 158.528 303.798C157.613 303.918 156.758 304.112 155.963 304.38C155.177 304.638 154.541 305.031 154.053 305.558C153.576 306.075 153.338 306.781 153.338 307.676C153.338 308.899 153.79 309.824 154.695 310.45C155.61 311.067 156.768 311.375 158.17 311.375ZM178.077 300.219V314H174.558V291.091H177.958V294.67H178.256C178.793 293.507 179.609 292.572 180.702 291.866C181.796 291.151 183.208 290.793 184.938 290.793C186.489 290.793 187.847 291.111 189.01 291.747C190.173 292.374 191.078 293.328 191.724 294.611C192.371 295.884 192.694 297.494 192.694 299.443V314H189.174V299.682C189.174 297.882 188.707 296.48 187.772 295.476C186.837 294.462 185.555 293.955 183.924 293.955C182.8 293.955 181.796 294.198 180.911 294.685C180.036 295.173 179.345 295.884 178.838 296.818C178.331 297.753 178.077 298.886 178.077 300.219ZM205.867 314.537C204.416 314.537 203.098 314.263 201.915 313.717C200.732 313.16 199.792 312.359 199.096 311.315C198.4 310.261 198.052 308.989 198.052 307.497C198.052 306.185 198.311 305.121 198.828 304.305C199.345 303.48 200.036 302.834 200.901 302.366C201.766 301.899 202.72 301.551 203.764 301.322C204.818 301.084 205.877 300.895 206.941 300.756C208.333 300.577 209.462 300.442 210.327 300.353C211.202 300.254 211.838 300.089 212.236 299.861C212.644 299.632 212.847 299.234 212.847 298.668V298.548C212.847 297.077 212.445 295.933 211.639 295.118C210.844 294.303 209.636 293.895 208.015 293.895C206.335 293.895 205.017 294.263 204.063 294.999C203.108 295.734 202.437 296.52 202.049 297.355L198.708 296.162C199.305 294.77 200.1 293.686 201.095 292.911C202.099 292.125 203.193 291.578 204.376 291.27C205.569 290.952 206.742 290.793 207.896 290.793C208.632 290.793 209.477 290.882 210.431 291.061C211.396 291.23 212.325 291.583 213.22 292.12C214.125 292.657 214.876 293.467 215.472 294.551C216.069 295.635 216.367 297.087 216.367 298.906V314H212.847V310.898H212.669C212.43 311.395 212.032 311.927 211.475 312.494C210.919 313.06 210.178 313.543 209.253 313.94C208.328 314.338 207.2 314.537 205.867 314.537ZM206.404 311.375C207.796 311.375 208.97 311.102 209.924 310.555C210.889 310.008 211.615 309.302 212.102 308.437C212.599 307.572 212.847 306.662 212.847 305.707V302.486C212.698 302.665 212.37 302.829 211.863 302.978C211.366 303.117 210.789 303.241 210.133 303.351C209.487 303.45 208.855 303.54 208.239 303.619C207.632 303.689 207.14 303.749 206.762 303.798C205.847 303.918 204.992 304.112 204.197 304.38C203.411 304.638 202.775 305.031 202.288 305.558C201.811 306.075 201.572 306.781 201.572 307.676C201.572 308.899 202.024 309.824 202.929 310.45C203.844 311.067 205.002 311.375 206.404 311.375ZM232.039 323.068C230.339 323.068 228.877 322.849 227.654 322.412C226.431 321.984 225.412 321.418 224.597 320.712C223.791 320.016 223.15 319.27 222.673 318.474L225.477 316.506C225.795 316.923 226.197 317.401 226.685 317.938C227.172 318.484 227.838 318.957 228.683 319.354C229.538 319.762 230.657 319.966 232.039 319.966C233.888 319.966 235.415 319.518 236.618 318.624C237.821 317.729 238.423 316.327 238.423 314.418V309.764H238.124C237.866 310.182 237.498 310.699 237.021 311.315C236.553 311.922 235.877 312.464 234.992 312.941C234.117 313.408 232.934 313.642 231.442 313.642C229.593 313.642 227.933 313.205 226.461 312.33C224.999 311.455 223.841 310.182 222.986 308.511C222.141 306.841 221.718 304.812 221.718 302.426C221.718 300.08 222.131 298.036 222.956 296.296C223.781 294.546 224.93 293.194 226.401 292.239C227.873 291.275 229.573 290.793 231.502 290.793C232.994 290.793 234.177 291.041 235.052 291.538C235.937 292.026 236.613 292.582 237.08 293.209C237.558 293.825 237.925 294.332 238.184 294.73H238.542V291.091H241.942V314.656C241.942 316.625 241.495 318.226 240.6 319.459C239.715 320.702 238.522 321.612 237.021 322.188C235.529 322.775 233.869 323.068 232.039 323.068ZM231.92 310.48C233.332 310.48 234.525 310.157 235.499 309.511C236.474 308.864 237.214 307.935 237.722 306.722C238.229 305.509 238.482 304.057 238.482 302.366C238.482 300.716 238.234 299.259 237.737 297.996C237.239 296.734 236.504 295.744 235.529 295.028C234.555 294.312 233.352 293.955 231.92 293.955C230.428 293.955 229.185 294.332 228.191 295.088C227.207 295.844 226.466 296.858 225.969 298.131C225.482 299.403 225.238 300.815 225.238 302.366C225.238 303.957 225.487 305.364 225.984 306.587C226.491 307.8 227.237 308.755 228.221 309.451C229.215 310.137 230.448 310.48 231.92 310.48ZM257.991 314.477C255.783 314.477 253.879 313.99 252.278 313.016C250.688 312.031 249.46 310.659 248.594 308.899C247.739 307.129 247.312 305.071 247.312 302.724C247.312 300.378 247.739 298.31 248.594 296.52C249.46 294.72 250.663 293.318 252.204 292.314C253.755 291.3 255.565 290.793 257.633 290.793C258.826 290.793 260.004 290.991 261.168 291.389C262.331 291.787 263.39 292.433 264.344 293.328C265.299 294.213 266.06 295.386 266.626 296.848C267.193 298.31 267.477 300.109 267.477 302.247V303.739H249.817V300.696H263.897C263.897 299.403 263.638 298.25 263.121 297.236C262.614 296.222 261.888 295.421 260.944 294.835C260.009 294.248 258.906 293.955 257.633 293.955C256.231 293.955 255.018 294.303 253.994 294.999C252.979 295.685 252.199 296.58 251.652 297.683C251.105 298.787 250.832 299.97 250.832 301.233V303.261C250.832 304.991 251.13 306.458 251.727 307.661C252.333 308.854 253.173 309.764 254.247 310.391C255.321 311.007 256.569 311.315 257.991 311.315C258.915 311.315 259.751 311.186 260.496 310.928C261.252 310.659 261.903 310.261 262.45 309.734C262.997 309.197 263.42 308.531 263.718 307.736L267.119 308.69C266.761 309.844 266.159 310.858 265.314 311.733C264.469 312.598 263.425 313.274 262.182 313.761C260.939 314.239 259.542 314.477 257.991 314.477ZM281.482 314.477C279.572 314.477 277.887 313.995 276.425 313.031C274.964 312.056 273.82 310.684 272.995 308.914C272.17 307.134 271.757 305.031 271.757 302.605C271.757 300.199 272.17 298.111 272.995 296.341C273.82 294.571 274.969 293.204 276.44 292.239C277.912 291.275 279.612 290.793 281.541 290.793C283.033 290.793 284.211 291.041 285.076 291.538C285.951 292.026 286.617 292.582 287.075 293.209C287.542 293.825 287.905 294.332 288.163 294.73H288.462V283.455H291.982V314H288.581V310.48H288.163C287.905 310.898 287.537 311.425 287.06 312.061C286.582 312.687 285.901 313.249 285.016 313.746C284.131 314.234 282.953 314.477 281.482 314.477ZM281.959 311.315C283.371 311.315 284.564 310.947 285.538 310.212C286.513 309.466 287.254 308.437 287.761 307.124C288.268 305.802 288.521 304.276 288.521 302.545C288.521 300.835 288.273 299.339 287.776 298.056C287.278 296.763 286.543 295.759 285.568 295.043C284.594 294.317 283.391 293.955 281.959 293.955C280.467 293.955 279.224 294.337 278.23 295.103C277.246 295.859 276.505 296.888 276.008 298.19C275.521 299.483 275.277 300.935 275.277 302.545C275.277 304.176 275.526 305.658 276.023 306.99C276.53 308.312 277.276 309.366 278.26 310.152C279.254 310.928 280.487 311.315 281.959 311.315Z" fill="white"/>
<path d="M124.471 150.364V86.7273H128.547V150.364H124.471ZM138.192 105.818C137.894 103.299 136.684 101.344 134.563 99.9517C132.442 98.5597 129.84 97.8636 126.758 97.8636C124.504 97.8636 122.532 98.2282 120.841 98.9574C119.168 99.6866 117.858 100.689 116.914 101.965C115.986 103.241 115.522 104.691 115.522 106.315C115.522 107.674 115.845 108.843 116.491 109.82C117.154 110.781 117.999 111.585 119.027 112.232C120.054 112.861 121.131 113.383 122.258 113.798C123.385 114.195 124.421 114.518 125.366 114.767L130.536 116.159C131.862 116.507 133.337 116.988 134.961 117.601C136.601 118.214 138.167 119.051 139.659 120.112C141.167 121.156 142.41 122.498 143.388 124.138C144.365 125.779 144.854 127.793 144.854 130.179C144.854 132.93 144.133 135.416 142.691 137.636C141.266 139.857 139.178 141.622 136.427 142.931C133.693 144.24 130.37 144.895 126.459 144.895C122.813 144.895 119.656 144.307 116.988 143.13C114.337 141.953 112.249 140.313 110.724 138.208C109.216 136.103 108.363 133.659 108.164 130.875H114.527C114.693 132.797 115.339 134.388 116.466 135.648C117.61 136.891 119.052 137.819 120.792 138.432C122.548 139.028 124.437 139.327 126.459 139.327C128.812 139.327 130.925 138.946 132.798 138.183C134.671 137.404 136.154 136.327 137.248 134.952C138.341 133.56 138.888 131.936 138.888 130.08C138.888 128.389 138.416 127.014 137.471 125.953C136.527 124.893 135.284 124.031 133.743 123.368C132.201 122.705 130.536 122.125 128.746 121.628L122.482 119.838C118.505 118.695 115.356 117.062 113.036 114.941C110.716 112.82 109.556 110.044 109.556 106.614C109.556 103.763 110.326 101.277 111.868 99.1562C113.425 97.0185 115.513 95.3613 118.132 94.1847C120.767 92.9915 123.708 92.3949 126.956 92.3949C130.238 92.3949 133.154 92.9832 135.706 94.1598C138.258 95.3198 140.28 96.9107 141.772 98.9325C143.28 100.954 144.075 103.25 144.158 105.818H138.192ZM171.297 144.696C168.016 144.696 165.091 144.133 162.522 143.006C159.97 141.879 157.94 140.313 156.432 138.308C154.94 136.286 154.128 133.941 153.996 131.273H160.26C160.392 132.913 160.956 134.33 161.95 135.523C162.945 136.7 164.245 137.612 165.853 138.258C167.46 138.904 169.242 139.227 171.197 139.227C173.385 139.227 175.324 138.846 177.014 138.084C178.704 137.321 180.03 136.261 180.991 134.902C181.953 133.543 182.433 131.969 182.433 130.179C182.433 128.306 181.969 126.657 181.041 125.232C180.113 123.79 178.754 122.664 176.964 121.852C175.175 121.04 172.987 120.634 170.402 120.634H166.325V115.165H170.402C172.424 115.165 174.197 114.8 175.722 114.071C177.263 113.342 178.464 112.314 179.326 110.989C180.204 109.663 180.643 108.105 180.643 106.315C180.643 104.592 180.262 103.092 179.5 101.816C178.738 100.54 177.66 99.5457 176.268 98.8331C174.893 98.1205 173.269 97.7642 171.396 97.7642C169.64 97.7642 167.982 98.0874 166.425 98.7337C164.883 99.3634 163.624 100.283 162.646 101.493C161.668 102.686 161.138 104.128 161.055 105.818H155.089C155.189 103.15 155.993 100.813 157.501 98.8082C159.009 96.7865 160.981 95.2121 163.417 94.0852C165.869 92.9583 168.562 92.3949 171.496 92.3949C174.644 92.3949 177.346 93.0329 179.599 94.3089C181.853 95.5684 183.585 97.2339 184.795 99.3054C186.004 101.377 186.609 103.614 186.609 106.017C186.609 108.884 185.855 111.328 184.347 113.35C182.856 115.372 180.826 116.772 178.257 117.551V117.949C181.472 118.479 183.983 119.846 185.789 122.05C187.595 124.238 188.498 126.947 188.498 130.179C188.498 132.946 187.744 135.432 186.236 137.636C184.745 139.824 182.707 141.547 180.121 142.807C177.536 144.066 174.595 144.696 171.297 144.696ZM199.56 93.0909H206.918L224.219 135.349H224.816L242.117 93.0909H249.475V144H243.708V105.321H243.211L227.302 144H221.734L205.824 105.321H205.327V144H199.56V93.0909ZM275.955 135.051V102.239H281.523V135.051H275.955ZM262.333 121.429V115.861H295.145V121.429H262.333Z" fill="#0096C7"/>
</svg>
