<?xml version="1.0" encoding="utf-8"?>
<!-- Generator: Adobe Illustrator 26.3.1, SVG Export Plug-In . SVG Version: 6.00 Build 0)  -->
<svg version="1.1" id="Layer_1" xmlns="http://www.w3.org/2000/svg" xmlns:xlink="http://www.w3.org/1999/xlink" x="0px" y="0px"
	 viewBox="0 0 1161.9 713.7" style="enable-background:new 0 0 1161.9 713.7;" xml:space="preserve">
<style type="text/css">
	.st0{fill:#F2F2F2;}
	.st1{fill:#F9A71A;}
</style>
<g>
	<path class="st0" d="M428.4,283.6l-1.4-11.4c-31.2,6.6-59,22.6-80.2,45c4.4,2.2,7.8,4.2,10.2,5.9
		C376.1,303.6,400.8,289.6,428.4,283.6z"/>
	<path class="st0" d="M490.3,272.2l-0.6,11.5c31.4,7,59,24.4,78.9,48.4v-17C547.7,293.8,520.6,278.5,490.3,272.2z"/>
	<path class="st0" d="M604.3,306.7h45c-33.5-54.7-89.8-94-155.6-104.4l-1.8,37.1C537.1,247.6,576.7,272.2,604.3,306.7z"/>
	<path class="st0" d="M313.5,306.4c27.1-33.7,65.7-57.9,109.7-66.4l-4.4-36.8c-62.8,11.4-116.5,49.1-149.2,101.3
		c4.8-0.5,9.7-0.7,14.7-0.7C295.2,303.7,304.9,304.8,313.5,306.4z"/>
	<rect x="89" y="319.9" class="st1" width="67.3" height="205.3"/>
	<path class="st1" d="M645.7,410.7l62.5,114.6h69.9V319.9h-65.5v77.4c0,14.9,1.5,37.2,1.5,37.2l-59.5-114.6h-72.9v140.6l65.5,28
		v-40.7C647.2,433,645.7,410.7,645.7,410.7z"/>
	<rect x="803.8" y="319.9" class="st1" width="67.3" height="205.3"/>
	<path class="st1" d="M1000,528.8c44.6,0,65.5-18.5,72.9-25.9l-19.3-53.6c-8.9,8.9-25.3,18.7-49.1,18.7c-23.8,0-47-14.3-47-46.1
		c0-32.1,21.7-47,47-47c25.3,0,46.1,17.9,46.1,17.9l17.8-56.5c0,0-22.3-19.3-68.4-19.3c-61,0-110.1,37.5-110.1,105.9
		S939,528.8,1000,528.8z"/>
	<path class="st0" d="M464.3,317.1c-19.5-62-20.4-134-20.4-134S455,257.3,477,300.8l10.4-211.2L475.6,89c-7.4-0.4-14.1,3.6-16.5,9.6
		l-23.3,61c-5.1,13.5-6.9,27.7-5.2,41.9l13.9,116.3c4.7-0.6,9.4-1,14.3-1C460.6,316.9,462.4,317,464.3,317.1z"/>
	<path class="st1" d="M340.4,456.6l-2.6-7.2c-8.9,8.9-25.3,18.7-49.1,18.7c-23.8,0-47-14.3-47-46.1c0-32.1,21.7-47,47-47
		c25.3,0,46.1,17.9,46.1,17.9l17.8-56.5c0,0-22.3-19.3-68.4-19.3c-61,0-110.1,37.5-110.1,105.9c0,44.5,20.7,75.9,52,92.4
		L340.4,456.6z"/>
	<path class="st0" d="M258.5,555.7c0,0,58.7-46.8,85.4-87.6l-188.1,96.6l5.4,10.5c3.4,6.6,10.2,10.5,16.6,9.4l64.5-10.3
		c14.2-2.3,27.5-7.9,38.9-16.4l93.8-70.2c-4-5.2-7.6-10.8-10.6-16.7C320.5,518.9,258.5,555.7,258.5,555.7z"/>
	<path class="st0" d="M674.3,529.8c0,0-69.9-27.5-118.6-30.2l177.7,114.6l6.4-9.9c4-6.2,4-14-0.1-19.1l-41.2-50.7
		c-9.1-11.2-20.6-19.9-33.7-25.5l-107.9-46.2c-2.5,6.2-5.6,12.1-9.2,17.6C611.2,494.4,674.3,529.8,674.3,529.8z"/>
	<path class="st1" d="M487.9,321c-7.6-2.2-15.4-3.5-23.6-3.9c-1.8-0.1-3.7-0.1-5.5-0.1c-4.9,0-9.6,0.4-14.3,1
		c-4,0.5-7.9,1.3-11.7,2.2c-45.9,11.6-80,53.2-80,102.7c0,8.9,1.1,17.5,3.2,25.7c2,7.8,4.8,15.3,8.4,22.4c3,5.9,6.6,11.5,10.6,16.7
		c2.4,3.1,5,6.1,7.8,9c7.6,7.8,16.3,14.4,25.9,19.6c14.9,8,31.9,12.6,50,12.6c18.1,0,35.1-4.5,50-12.6c8.7-4.7,16.7-10.6,23.8-17.4
		c5.7-5.5,10.8-11.7,15.1-18.4c3.6-5.5,6.7-11.4,9.2-17.6c1.5-3.7,2.8-7.4,3.8-11.3c2.6-9.1,4-18.7,4-28.7
		C564.7,374.4,532.2,333.7,487.9,321z M458.8,378.4c24.6,0,44.5,19.9,44.5,44.5s-19.9,44.5-44.5,44.5c-24.6,0-44.5-19.9-44.5-44.5
		S434.2,378.4,458.8,378.4z"/>
	<g>
		<g>
			<path class="st0" d="M354.8,579.1l-1.3-4.8h-9.8l-1.3,4.8h-11.7l11.9-34.4h12.4l12,34.4H354.8z M348.6,556.4l-2.5,9.2h5.1
				L348.6,556.4z"/>
			<path class="st0" d="M370.8,579.1v-34.4H382v34.4H370.8z"/>
			<path class="st0" d="M407.3,579.1l-5.5-11.5h-1.4v11.5h-11.3v-34.4h14.9c4.2,0,7.5,0.7,10,2.5c2.5,1.7,4.2,4.7,4.2,8.5
				c0,7-4.2,9.5-5.7,10.4l7.7,13H407.3z M405.7,553.8c-0.5-0.4-1.2-0.6-2.5-0.6h-2.8v6h2.8c1.9,0,3.7-0.7,3.7-3
				C406.9,554.7,406.2,554.2,405.7,553.8z"/>
			<path class="st0" d="M458.5,567.9c-1.2,0.4-2.4,0.8-3.6,0.8c-2.6,0-3.7-1.1-3.7-2.4c0-1.7,1.9-2.7,4.1-2.7c1.3,0,2.6,0.3,3.7,1
				c3.9-2.4,7.9-6.8,11.8-6.8c3,0,4.7,1.8,4.7,4.4c0,3.1-2.4,5-4.1,5c-0.4,0-0.5-0.1-0.7-0.4c-0.4-0.9-1.5-1.7-3.5-1.7s-4,0.9-6,1.8
				c0.6,1,0.9,2.2,0.9,3.7c0,5.4-4.8,11.8-14.8,11.8c-7.9,0-14.1-4-14.1-11.1c0-6.9,6-11.6,12.4-13.7c-0.8-1.2-1.3-2.6-1.3-4.2
				c0-5,5.5-9.6,13.1-9.6c5.7,0,10.4,2.3,10.4,6.6c0,4-4.1,5.7-7,5.7c-2.2,0-3.5-1-3.5-1.8c0-0.2,0.1-0.4,0.4-0.5
				c0.6-0.3,3.2-0.8,3.2-3.3c0-2.1-1.8-3.5-4.3-3.5c-3.6,0-6.3,2.4-6.3,5.4c0,1.7,0.4,3,1.5,4c0.4,0,0.9,0,1.3,0
				c3.6,0,4.6,1,4.6,2.3c0,1.6-1.7,2.5-4.5,2.5c-1.8,0-3.4-0.4-4.8-1.1c-4.3,1.8-7.4,5.9-7.4,10.3c0,4.7,3.7,8.1,8.9,8.1
				c5.6,0,9.2-3.7,9.2-7.7C459,569.6,458.9,568.7,458.5,567.9z"/>
			<path class="st0" d="M512.9,576.7c-2.7,2.1-6.2,2.9-10.2,2.9c-4,0-8.6-1.1-13.2-4.6l5-8.5c3.2,2.7,7.7,3.7,9.2,3.7
				c1.5,0,2.5-0.4,2.5-1.4c0-1-1.2-1.4-2.5-1.8c-1.2-0.3-4-1.2-5-1.6c-4.8-1.9-7.9-4.1-7.9-9.9c0-3.7,1.9-6.6,4-8.3
				c2.1-1.7,5.5-3,10.1-3s9.3,1.6,12.2,4.1l-4.3,8c-2.6-2.3-6.4-3.3-8.2-3.3s-2.8,0.3-2.8,1.4c0,1,1.6,1.3,2.4,1.6
				c0.8,0.2,2.9,0.8,4.1,1.2c5.2,1.7,9,4.3,9,10.4C517.4,571.3,515.6,574.6,512.9,576.7z"/>
			<path class="st0" d="M522.9,579.1v-34.4h24.4v8.9h-13.2v3.7h12.4v8.8h-12.4v4h13.7v9H522.9z"/>
			<path class="st0" d="M575.2,579.1l-1.3-4.8H564l-1.3,4.8H551l11.9-34.4h12.4l12,34.4H575.2z M568.9,556.4l-2.5,9.2h5.1
				L568.9,556.4z"/>
		</g>
		<g>
			<path class="st0" d="M311.2,624.1l-1.3-4.8h-9.8l-1.3,4.8h-11.7l11.9-34.4h12.4l12,34.4H311.2z M305,601.4l-2.5,9.2h5.1
				L305,601.4z"/>
			<path class="st0" d="M340.2,624.1h-12.9v-34.4h12.9c11.4,0,19.4,4.8,19.4,17.2C359.6,619.2,351.6,624.1,340.2,624.1z M341,598.9
				h-2.6v15.7h2.6c5,0,7.2-2.8,7.2-7.7C348.2,601.9,346.2,598.9,341,598.9z"/>
			<path class="st0" d="M384.2,624.1h-11l-12.9-34.4h11.9l6.5,19.9l6.5-19.9h12L384.2,624.1z"/>
			<path class="st0" d="M400.9,624.1v-34.4h24.4v8.9h-13.2v3.7h12.4v8.8h-12.4v4h13.7v9H400.9z"/>
			<path class="st0" d="M453.4,624.1L443,604.9c0,0,0.2,3.7,0.2,6.2v12.9h-11v-34.4h12.2l10,19.2c0,0-0.2-3.7-0.2-6.2v-12.9h11v34.4
				H453.4z"/>
			<path class="st0" d="M488.5,598.5v25.6h-11.3v-25.6h-8.1v-8.8h27.4v8.8H488.5z"/>
			<path class="st0" d="M528,620.6c-2.5,2.5-6.5,4-11.9,4c-5.5,0-9.5-1.5-12-4c-2.5-2.5-3.7-5.7-3.7-11.2v-19.7h11.3v20.2
				c0,2.9,1.2,5,4.4,5c3.2,0,4.3-2,4.3-5v-20.2h11.4v19.7C531.8,614.9,530.5,618.1,528,620.6z"/>
			<path class="st0" d="M556.9,624.1l-5.5-11.5H550v11.5h-11.3v-34.4h14.9c4.2,0,7.5,0.7,10,2.5c2.5,1.7,4.2,4.7,4.2,8.5
				c0,7-4.2,9.5-5.7,10.4l7.7,13H556.9z M555.3,598.8c-0.5-0.4-1.2-0.6-2.5-0.6h-2.8v6h2.8c1.9,0,3.7-0.7,3.7-3
				C556.5,599.7,555.8,599.2,555.3,598.8z"/>
			<path class="st0" d="M573.7,624.1v-34.4h24.4v8.9H585v3.7h12.4v8.8H585v4h13.7v9H573.7z"/>
			<path class="st0" d="M625.9,621.7c-2.7,2.1-6.2,2.9-10.2,2.9c-4,0-8.6-1.1-13.2-4.6l5-8.5c3.2,2.7,7.7,3.7,9.2,3.7
				c1.5,0,2.5-0.4,2.5-1.4c0-1-1.2-1.4-2.5-1.8c-1.2-0.3-4-1.2-5-1.6c-4.8-1.9-7.9-4.1-7.9-9.9c0-3.7,1.9-6.6,4-8.3
				c2.1-1.7,5.5-3,10.1-3s9.3,1.6,12.2,4.1l-4.3,8c-2.6-2.3-6.4-3.3-8.2-3.3s-2.8,0.3-2.8,1.4c0,1,1.6,1.3,2.4,1.6
				c0.8,0.2,2.9,0.8,4.1,1.2c5.2,1.7,9,4.3,9,10.4C630.4,616.4,628.7,619.6,625.9,621.7z"/>
		</g>
	</g>
</g>
</svg>
