<?xml version="1.0" encoding="UTF-8"?>
<svg id="Layer_1" data-name="Layer 1" xmlns="http://www.w3.org/2000/svg" version="1.1" viewBox="0 0 336.4 114.8">
  <defs>
    <style>
      .cls-1 {
        fill: #009cf6;
      }

      .cls-1, .cls-2 {
        stroke-width: 0px;
      }

      .cls-2 {
        fill: #fff;
      }
    </style>
  </defs>
  <path class="cls-2" d="M173.8,83.2v21h6.5v-6.7h4.2v6.8h6.5v-25.3h-12.7c-3,0-4.5,1.2-4.5,4.2ZM180.2,84.8h4.2v6.9h-4.1v-6.9Z"/>
  <rect class="cls-2" x="193.4" y="79.1" width="6.5" height="25.1"/>
  <path class="cls-2" d="M214.6,79h-12.2v25.1h6.5v-8.5h3.7v8.5h6.5v-8.3c0-1.9-.9-2.8-2.3-3h0c1.5-.4,2.5-1.8,2.3-3.3v-6.5c0-2.8-1.6-4-4.5-4ZM212.6,90h-3.6v-5.2h3.7v5.2h0Z"/>
  <path class="cls-2" d="M221.6,83v17.2c0,2.9,1.5,4,4.3,4h10.5v-5.8h-8.3v-13.6h8.3v-5.8h-10.5c-2.8,0-4.3,1.1-4.3,4Z"/>
  <path class="cls-2" d="M250.5,79h-12.2v25.1h6.5v-8.5h3.7v8.5h6.5v-8.3c0-1.9-.9-2.8-2.3-3h0c1.5-.4,2.5-1.8,2.3-3.3v-6.5c0-2.8-1.6-4-4.5-4ZM248.5,90h-3.7v-5.2h3.7v5.2Z"/>
  <path class="cls-2" d="M257.5,83.2v21h6.5v-6.7h4.2v6.8h6.5v-25.3h-12.7c-2.9,0-4.5,1.2-4.5,4.2ZM264,84.8h4.2v6.9h-4.2v-6.9Z"/>
  <polygon class="cls-2" points="277.1 104.2 283.6 104.2 283.6 95.7 291 95.7 291 90 283.6 90 283.6 84.8 291 84.8 291 79.1 277.1 79.1 277.1 104.2"/>
  <polygon class="cls-2" points="292.5 84.8 297.8 84.8 297.8 104.2 304.3 104.2 304.3 84.8 309.7 84.8 309.7 79.1 292.5 79.1 292.5 84.8"/>
  <path class="cls-1" d="M119.9,57.6c-.7,0-1.2.5-2.8,2.2s-3.1,3.2-4.7,4.7h0c-.9.8-7.6,6.5-12.7,6.5s-1.7-.5-1.7-1.8v-.5c5.2,0,10.3-3.1,10.3-6.6.1-1.1-.7-2.1-1.8-2.2,0,0,0,0,0,0h-.4c-3.3,0-7.9,2.7-10.3,6.1-2.2,1.9-5.8,4.7-8,4.7s-.9-.4-.9-.9h0c0-1.4,1.9-3.3,3.5-4.7,1.2-1,3.5-2.5,3.5-3.2s-.5-1.7-1.2-1.7c-1.6,0-6.6,2.4-11.2,5.7.9-1.3,1.4-2.8,1.4-4.4,0-1.1-.5-1.6-1.5-1.6-2.2,0-6.4,3.8-10.1,6.9,1.1-1.5,2-3.2,2.7-4.9.1-.2.2-.5.2-.8-.1-.9-.9-1.6-1.8-1.7-.3,0-.6.2-.7.4-1.4,1.7-2.8,3.2-4.4,4.7h0c-.8.8-7.2,6.4-9.8,6.4s-1-.2-1-1c0-1.6,1.8-3.2,3.2-4.4,1-.8,1.9-1.6,2.8-2.5.3-.2.4-.5.5-.8,0-1.1-.6-2-1.2-2s-.4.2-1.3,1l-1.4,1.3c-.5-1.5-1.9-2.5-3.5-2.4-1.8,0-3.7.5-5.3,1.4-.6,0-1.2,0-1.8.2-1.2.2-2.4.4-3.6.8.8-1.5,1.6-3.1,2.5-4.5l19.6-29.6c1.6-2.5,3.3-4.9,4.9-7.5,1.6-2.6,3.1-5.2,4.4-7.9.7-1.4,1.3-2.8,1.8-4.3.2-.7.5-1.5.7-2.3.2-.8.3-1.7.3-2.5,0-.5,0-.9-.1-1.4-.1-.6-.4-1.2-.8-1.7-.3-.3-.6-.5-1-.6C76.9,0,76.6,0,76.2,0c-.6,0-1.2,0-1.7.3-.8.4-1.6,1-2.2,1.6-.4.7-.8,1.4-1.3,2-7.2,9.5-13.7,19.6-19.5,30-3,5.2-5.6,10.5-8.4,15.8-1.4,2.7-2.6,5.5-3.7,8.3-.5,1.4-1,2.9-1.4,4.4-.3,1.3-.6,2.7-.7,4-1.7,1-3.3,2.1-4.8,3.3-4.7,3.8-9.1,8-13,12.7-3.9,4.6-7.5,9.5-10.8,14.5-1.7,2.5-3.1,5.1-4.7,7.7l-1.1,2-.6,1c-.2.4-.4.7-.6,1.1-.3.7-.7,1.4-1,2.1-.2.4-.3.7-.5,1.1v.3c-.2.2-.2.5-.2.7v.6c-.1,0,.6,1.4,1.5,1.3h1c1.7-.7,3.2-1.7,4.4-3,1-1.2,2-2.4,2.9-3.7.5-.6.8-1.1,1.3-1.7l1.4-1.7,2.8-3.5,11.2-13.9,11.2-13.9,2.7-3.6,1.3-1.8.7-.9v-.2c1.1-.6,2.1-1.2,3.2-1.7-1.4,1.4-2.3,3.2-2.4,5.2,0,2,1,3.3,2.9,3.3,2.7,0,5.5-2,7.9-4-.2.6-.4,1.2-.4,1.8,0,1.3,1.1,2.2,3,2.2,4.2,0,11.2-6.7,12-7.5h0c-1.2,2.1-2.5,4.1-3.9,6.1,0,0,0,.2,0,.4,0,.7,1.1,1.2,1.9,1.2.3,0,.6-.1.8-.3,3.7-3.5,7.7-6.8,11.8-9.9-1.1,2.5-2.5,5-4,7.3-.2.3-.3.6-.4,1,0,.7,1,1.3,1.4,1.3s.8-.4,1.3-.9c2.6-3,5.8-5.5,9.4-7.4-1.9,1.8-3.3,3.6-3.3,5.6s1.3,2.8,2.8,2.8h.2c2.2,0,5.1-1.8,7.6-3.6v.3c.1,2,1.9,3.5,3.9,3.4,6.8,0,14.6-6.6,15.5-7.5h0c1.3-1.2,2.5-2.4,3.6-3.8,0,1.1-.1,2.3-.3,3.4-.6,3.3-2.9,5.1-4.4,5.1-.6,0-1.1-.4-1.3-1,0,0-.2-.2-.3-.2-.8.2-1.5.8-1.7,1.6,0,1.5,1.3,2.7,2.8,2.6,0,0,.2,0,.2,0,5,0,7-4.7,7.3-7.6.4-3.3,0-5.4,1.4-7,0-.1.1-.3,0-.4.3-.4-.3-1-1-1.1ZM105.2,62.3c.4,0,.8.2.8.6h0c0,1.4-4.1,3.9-7,3.9,1.5-2.3,4.8-4.5,6.2-4.5ZM35.8,71.5l-11.4,13.8-11.4,13.7-2.9,3.5-1.4,1.7c-.5.6-1,1.2-1.4,1.8l-.6.8.3-.4c1.6-2.5,3-5.1,4.7-7.5,3.2-4.9,6.7-9.7,10.5-14.2,3.8-4.4,8-8.5,12.5-12.2.4-.3.8-.7,1.2-1h-.1ZM41.3,64.2l-1.1.5h0c.1-.5.3-1.1.5-1.7.4-1.4.8-2.8,1.4-4.1,1.1-2.7,2.3-5.4,3.7-8,2.7-5.3,5.4-10.5,8.4-15.7,5.8-10.3,12.3-20.2,19.4-29.7.4-.6.8-1.1,1.3-1.6.4-.4.8-.8,1.3-1,.1,0,.3-.1.4,0h0c.1.4.2.7.2,1.1,0,.6,0,1.3-.2,1.9-.2.7-.4,1.4-.6,2-.5,1.4-1,2.7-1.7,4-1.3,2.6-2.7,5.2-4.3,7.6-1.6,2.5-3.2,4.9-4.9,7.4l-9.8,14.9-4.9,7.4c-1.6,2.5-3.3,5-4.8,7.6s-2.8,5.2-4.3,7.5ZM48.1,70.5c-.7,0-1.3-.5-1.4-1.2v-.3c0-1.1.8-2.5,3-4.2,1.6-1.2,3.5-2,5.5-2.2,1,0,2,.6,2.2,1.6-3.2,3.1-7.2,6.3-9.3,6.3Z"/>
  <path class="cls-1" d="M335.9,24.3c-.1-1.3-.6-2.6-1.3-3.7-.8-1.1-2-1.9-3.3-2.3-1.3-.4-2.6-.6-3.9-.5-5.1.3-10.1,1.6-14.6,3.9-7.8,3.8-13.7,8.9-20.1,14.1l-1.6-1.4c-.2-.1-.3-.1-.5,0l-.7.6c-.1,0-.2.3-.1.4l1.1,1.8c-1.6,1.1-3.3,2.3-3.7,2.6l-1.8-2.1-3.9-3.6c-.1-.1-.3-.1-.4,0l-1.2,1c-.2.2-.3.5-.1.7,0,0,0,0,0,0l2.8,3.6,2.2,2.5-1.9,1.7c-.2.2,0,.5.3.9-.3.4-.7.9-.6,1s.6-.2,1.1-.4c.4.4.7.6.9.4l1.9-1.7,2.2,2.5,3.2,3.3c.2.2.5.2.7,0,0,0,0,0,0,0l1.2-1c.1,0,.2-.3.1-.4l-3-4.3-1.8-2.1c.3-.3,1.8-1.8,3.1-3.3l1.6,1.3c.1.1.3.1.4,0l.7-.6c.1-.1.2-.3.1-.5l-1.3-2c0,0,.1,0,.1-.2h0c6.4-5.1,12.1-10,19.7-13.8,4.4-2.2,9.2-3.5,14.1-3.8,1.2,0,2.4,0,3.5.4,1.1.3,2,1,2.7,1.9.6,1,1,2.1,1.1,3.2,0,1.2,0,2.4,0,3.6-.6,4.9-2,9.7-4,14.2-2,4.5-4.5,8.8-7.5,12.8-2.9,4-6.3,7.6-10.2,10.7-1.2.9-10.8,8.4-11.4,4.4,0-.7.3-1.4.8-1.9.9-1.1,1.9-2.1,3-3,1.1-1,3.6-2.5,3.6-3.2s-.6-1.7-1.2-1.7c-1.6,0-6.3,2.2-10.8,5.4,1.2-1.6,2.2-2.7,2.7-3.4.2-.3.4-.6.4-1,0-.8-.8-2-1.6-2-.3,0-.7.1-.9.4-1.4,1.7-2.9,3.3-4.6,4.8l-.3.3c-1.4,1.3-7.1,6.2-9.5,6.2s-1-.2-1-1c0-1.6,1.8-3.2,3.2-4.4,1-.8,1.9-1.6,2.8-2.5.3-.2.4-.5.5-.8,0-1.1-.6-2-1.2-2s-.4.2-1.3,1l-1.4,1.3c-.5-1.5-1.9-2.5-3.5-2.4-3.7,0-8.4,2.5-10.8,5.8-2.2,1.9-5.8,4.8-8,4.8-.5,0-.8-.4-.8-.9,0,0,0,0,0-.1h0c0-1.3,1.9-3.2,3.6-4.6,1.2-1,3.6-2.5,3.6-3.2s-.6-1.7-1.2-1.7c-1.6,0-6.6,2.4-11.2,5.7.9-1.3,1.4-2.8,1.4-4.4,0-1.1-.5-1.6-1.5-1.6-2.2,0-6.4,3.8-10.1,6.9,1.1-1.5,2-3.2,2.7-4.9.1-.2.2-.5.2-.8-.1-.9-.9-1.6-1.8-1.7-.3,0-.5.2-.7.4-1.3,1.7-2.8,3.3-4.4,4.7h0c-2.7,2.3-7.1,5.8-9.1,5.8-.5,0-.9-.3-1-.8,0,0,0,0,0,0v-.2c0-1.6,3.4-5,5.5-6.8.1-.1.2-.3.2-.5,0-.5-.4-1.2-.9-1.2s-1.1.2-2,.2-1.4-.2-1.4-.5.7-.8.7-1.3-.7-.8-1.2-.8c-.2,0-.4,0-.6.2-3.1,3.1-5.3,5.2-6.2,5.9h0c-.8.8-7.2,6.4-9.8,6.4s-1-.2-1-1c0-1.6,1.8-3.2,3.2-4.4,1-.8,1.9-1.6,2.8-2.5.3-.2.4-.5.5-.8,0-1.1-.6-2-1.2-2s-.4.2-1.3,1l-1.4,1.3c-.5-1.5-1.9-2.5-3.5-2.4-3.6,0-8.2,2.4-10.7,5.6-2.5,1.9-7.3,5.2-11.2,5.2s-1.7-.5-1.7-1.8v-.5c5.2,0,10.4-3.1,10.4-6.6.1-1.1-.7-2.1-1.8-2.2,0,0,0,0,0,0h-.4c-3.2,0-7.7,2.6-10.1,5.8-2.4,2-5.1,3.6-8.1,4.6,2.5-2,4.4-4.8,4.4-7.1,0-1.7-1.3-3.2-3-3.3-2.1.2-4.2.9-5.9,2.2,1.1-1.3,2.2-2.6,3.4-4.2.2-.3.3-.6.3-.9,0-.7-.4-1.3-1.1-1.4-.2,0-.3,0-.4.2-2.3,2.5-5.2,5.2-7.1,7,.6-2.3.8-4.6.6-7-.4-3.4-1.4-6.8-2.9-9.9-.7-1.5-1.6-3-2.5-4.4-.5-.7-.9-1.4-1.4-2.1-.2-.3-.5-.7-.8-1.1l-.8-1c-1-1.1-1.8-2.3-2.3-3.7,0-.1,0-.3-.1-.4-.1,0,0-.2,0-.3v-.5c.4-.4.9-.8,1.4-1,1.4-.5,2.8-.9,4.3-1,1.5-.2,3.1-.3,4.6-.2.4,0,.8.1,1.1.1h1.1c.8.3,1.4.5,2.1.7.5.1,1,.4,1.4.8.1.1.1,0,.1.1,0,.2-.2.4-.3.6l1.8,1.6c.5-.4.8-.9,1-1.5.2-.7,0-1.5-.3-2.2-.6-.9-1.5-1.6-2.5-2-.8-.4-1.7-.7-2.6-.8h-.7c-.2-.2-.5-.2-.7-.2-.4,0-.9-.1-1.3-.1-1.7,0-3.5,0-5.2.2-.8.1-1.7.3-2.5.5-.9.2-1.8.5-2.7.9-1,.4-1.9,1.2-2.5,2.1l-.2.4c-.1.2-.1.3-.2.5-.1.3-.2.7-.2,1v.9c.1.3.1.6.2.8.6,1.7,1.6,3.3,2.8,4.7,2,2.5,3.7,5.2,5.1,8,1.4,2.8,2.3,5.8,2.7,8.9.1,1.5,0,3-.2,4.5-.1.7-.3,1.5-.5,2.2-.2.7-.5,1.4-.8,2.1-1.3,2.8-3.3,5.1-5.8,6.9-1.3.9-2.6,1.7-4,2.3-7.3,3.2-15.5,3.2-22.8,0-1.4-.6-2.7-1.4-4-2.3-.3-.2-.6-.5-.9-.7l-.9-.8c-.5-.5-1-1-1.4-1.6-.8-1-1-2.4-.7-3.6.4-1.3,1.2-2.5,2.2-3.5,2.3-2.2,4.9-4,7.7-5.5,2.7-1.6,5.7-2.9,8.7-3.8,6.1-1.9,15.1-2.4,21.5-2.1l-1-2.6c-6.7-.3-14.8.3-21.2,2.3-3.2,1-6.4,2.3-9.3,4-3,1.6-5.8,3.6-8.2,6-1.4,1.3-2.4,2.9-2.9,4.7-.3,1-.3,2,0,3,.2,1,.6,1.9,1.2,2.7.4.8,1,1.6,1.6,2.3l1,.9c.3.3.7.5,1,.8,1.4,1,2.9,1.9,4.5,2.6,8,3.5,17,3.5,25,0,.7-.3,1.3-.6,1.9-1-4.5,4.5-9.1,9.1-13.4,13.9-.2.3-.4.7-.4,1.1,0,.7.3,1.4.9,1.4s.6-.1.8-.4c6.1-5.8,13.4-13.1,18.5-18.6.9-1,1.9-2,2.8-3,0,2.7,2,3.6,4.1,3.6,4.3,0,9-1.7,13.2-4.4,0,.2-.1.5-.1.7.1,2,1.9,3.5,3.9,3.4,3.8,0,7.9-2.1,10.9-4,0,.2-.1.5-.1.8,0,2,1,3.3,2.9,3.3,2.7,0,5.5-2,8-4-.3.6-.4,1.3-.3,1.9,0,1.3,1.1,2.2,3,2.2,4.2,0,11.2-6.7,12-7.5h0c.9-.8,3.1-2.9,3.6-3.4.4.7,1.1,1.1,1.9,1-.7.8-4.4,4-4.4,7.2-.1,1.3.8,2.5,2.1,2.6h.5c4,0,9.1-4.5,12.3-7.3h0c-1.2,2.1-2.5,4.1-3.9,6.1-.1,0-.1.2-.1.4,0,.7,1,1.2,1.9,1.2.3,0,.6-.1.8-.3,3.7-3.5,7.7-6.8,11.8-9.9-1.1,2.5-2.5,5-4,7.3-.2.3-.3.6-.4,1,0,.7,1,1.3,1.4,1.3s.8-.4,1.3-.9c2.6-3,5.8-5.5,9.4-7.4-2,1.8-3.3,3.6-3.3,5.6s1.3,2.8,2.8,2.8h.2c2.2,0,5.1-1.8,7.6-3.5v.4c0,2,1,3.3,2.9,3.3,2.7,0,5.5-2,8-4-.3.5-.4,1.1-.4,1.7,0,1.3,1.1,2.2,3,2.2,3,0,7.3-3.3,9.9-5.6-.6.9-1.2,1.8-1.9,2.9-.3.3-.5.8-.6,1.2,0,.4,1,1.1,1.6,1.1s.7-.4,1.2-.9c2.6-3,5.8-5.5,9.4-7.4-1.9,1.8-3.3,3.6-3.3,5.6s.6,2.6,1.7,2.7h0c1.3.2,2.7,0,3.9-.7,1.2-.5,2.3-1.1,3.4-1.8,2.1-1.3,4.2-2.8,6.2-4.3,3.9-3.2,7.4-6.8,10.4-10.9,3-4,5.5-8.4,7.6-13,2.1-4.6,3.5-9.5,4.2-14.5-.4-1.3-.5-2.6-.5-3.9ZM197.7,62.3c.4,0,.8.2.8.6h0c0,1.4-4.1,3.9-7.1,3.9,1.6-2.3,4.9-4.5,6.3-4.5ZM179,69.1c-.9.8-3,2.2-4.6,2.2-1.1,0-2.1-.8-2.2-1.9v-.3c0-.6.2-1.1.4-1.6,3.2-3,5.8-4.8,7.7-4.8.9,0,1.6.8,1.6,1.8,0,0,0,0,0,0h0c-.1,1.8-2,3.8-2.9,4.6ZM206.5,70.5c-.7,0-1.3-.5-1.4-1.2v-.3c0-1.1.8-2.5,3-4.2,1.6-1.2,3.5-2,5.5-2.2,1,0,2,.6,2.2,1.6-3.3,3.1-7.3,6.3-9.3,6.3ZM273.5,70.5c-.7,0-1.3-.5-1.4-1.2v-.3c0-1.1.8-2.5,3-4.2,1.6-1.2,3.5-2,5.5-2.2,1,0,2,.6,2.2,1.6-3.3,3.1-7.2,6.3-9.3,6.3h0Z"/>
</svg>