<svg width="468" height="135" viewBox="0 0 468 135" fill="none" xmlns="http://www.w3.org/2000/svg">
<g clip-path="url(#clip0_11_15)">
<path fill-rule="evenodd" clip-rule="evenodd" d="M29.8996 11.0599C6.71363 26.8234 -5.14735 56.0129 2.55894 84.6012C12.2756 120.737 49.6009 142.245 85.854 132.56C115.473 124.611 135.308 98.3609 136.247 69.3052C132.159 93.1507 114.602 113.657 89.6065 120.336C55.297 129.42 20.1159 109.182 10.9354 75.0494C4.50228 51.0701 12.6106 26.623 29.8996 11.0599Z" fill="#008F55"/>
<path fill-rule="evenodd" clip-rule="evenodd" d="M105.89 104.573C125.458 91.2807 135.442 66.6332 128.942 42.5204C120.767 11.9951 89.2715 -6.10632 58.6474 2.04265C33.6521 8.72214 16.9663 30.8981 16.1622 55.4118C19.6468 35.3066 34.4564 18.0066 55.5649 12.3291C84.4468 4.58086 114.133 21.6803 121.906 50.4689C127.267 70.7747 120.432 91.4142 105.89 104.573Z" fill="#EFD703"/>
<path d="M76.1333 26.1891C77.0377 25.7462 76.7999 26.0152 77.3392 26.1891C78.4025 24.6391 77.7835 25.6198 78.0058 24.7181C78.212 23.9748 78.7358 23.785 79.0848 23.2314L78.4343 22.8202C77.7043 22.4406 77.8629 23.1049 77.8629 21.8237C77.2916 22.1084 76.7839 22.3615 76.4348 22.8835C76.2604 22.6462 76.2604 23.2472 76.2604 22.3615C75.8953 22.5355 75.8477 22.5987 75.3876 22.6937C75.9113 22.0294 75.6732 22.6937 75.9271 21.9977C74.737 22.2824 74.2927 22.3141 73.6261 22.8676C73.1821 22.5513 72.928 22.5829 72.7536 21.9977C71.8807 22.0768 72.5155 22.1243 71.7221 22.3615C71.262 22.0452 70.9287 21.7921 70.31 21.634V21.3018C69.3738 21.3809 68.7548 21.887 67.9615 20.9855C67.9138 20.938 67.5806 20.337 67.5014 20.2421C66.8508 20.4161 67.1365 20.4161 66.6285 20.7641C66.5333 20.3528 66.4223 20.1472 65.8512 19.7834C65.5655 19.6094 65.7718 19.7043 65.4861 19.6569L64.5023 19.736C64.3755 19.7834 64.7561 19.8151 63.9788 19.8941V20.4319C64.6451 20.5901 64.0264 20.4003 64.4707 20.6375C64.5183 20.6692 64.5499 20.685 64.5975 20.7166C64.6293 20.7166 64.6451 20.7641 64.7087 20.7641C65.2322 21.0013 65.2798 20.7641 66.1051 20.7641C66.2795 21.4283 66.3431 21.0488 66.4381 22.3615L65.1528 22.8044C65.1212 22.836 65.0736 22.8518 65.0418 22.8518L63.4711 23.0258C62.8045 22.9467 63.0267 22.8676 62.7726 22.3615C62.6458 22.409 62.4554 22.5197 62.3126 22.5987L61.8683 22.8518C61.3448 23.2314 62.1221 23.01 61.2811 23.3105C60.9639 23.437 60.8368 23.3896 60.4877 23.3896C60.4877 23.8482 60.4877 23.8324 60.1071 24.386C59.742 24.9239 60.0753 24.9079 59.25 24.9711C59.25 26.2365 59.3771 25.5089 59.6152 26.3632L59.0438 26.5687C58.1712 26.7743 58.5837 26.7743 58.2665 27.6443C57.9332 28.5932 57.5204 27.8973 57.1556 29.5264C57.7269 29.9059 57.8537 29.9059 57.949 30.2698C58.06 30.5546 58.0284 30.6335 58.0284 30.9182C56.3464 30.7916 57.0922 31.0132 56.4732 30.8708C55.7274 30.6967 55.4102 30.5546 54.5058 30.5546C54.474 31.8355 54.4582 30.9657 54.1407 31.2979C54.1091 31.3294 54.0931 31.3454 54.0615 31.3768L53.8076 31.788C53.8392 30.586 54.0615 31.4243 54.1407 30.3962C52.6649 29.985 52.7286 28.4191 51.221 28.1504C50.0151 27.9131 51.221 27.7864 49.9357 27.7707C49.6184 28.4191 49.8089 28.5458 49.2375 28.9727C49.4122 28.1504 49.3488 28.7196 49.2375 28.4509C48.587 28.609 48.8569 28.6247 48.365 28.9727C48.2537 28.1818 48.1587 28.3085 47.4922 28.6407C47.6192 29.1625 47.4603 29.0044 48.0159 29.1625C47.8094 29.5739 47.6984 29.6214 47.6508 30.2223L46.6193 29.3523C46.1592 30.2538 46.7306 29.9376 45.953 30.4279L45.7149 30.5546C45.4769 30.6809 45.4293 30.7601 45.1914 30.9182C45.4453 31.8672 45.6515 31.0921 45.3659 31.788C44.7787 31.8672 44.7153 32.0413 44.3028 32.5788C44.271 32.5788 44.2552 32.6263 44.2234 32.6263C44.1916 32.6737 44.1124 32.7529 44.0966 32.7846C44.0172 32.8636 43.8901 32.9585 43.8109 33.0377C43.5571 33.275 43.2396 33.3699 43.1604 33.9074C43.1286 34.3188 43.3666 34.5718 43.6047 34.9041C43.2238 35.3627 43.2714 35.2203 43.2396 35.9636L42.4622 35.7106C41.6688 35.5365 42.0813 36.1535 41.8433 35.4576H40.9704C40.9704 36.6438 40.5261 36.3591 40.796 36.8811C40.9704 37.2131 41.4466 37.324 41.859 37.909C41.4147 38.0831 41.7004 38.0356 41.1609 37.909C41.2403 38.8422 41.3671 38.2255 41.1609 39.1427C40.6214 38.7632 40.907 38.8582 40.2883 37.7194C39.6693 36.6121 39.6378 37.3397 39.7488 36.1535C39.0188 36.3591 39.0822 36.7227 38.7173 37.2131L37.8606 38.1148C37.5431 38.4785 37.21 39.0637 37.1624 39.5066C37.1306 40.0284 37.4797 40.2974 37.4797 41.2306C37.7653 41.3887 37.1464 41.4045 38.0034 41.2306C37.8921 41.61 37.9716 41.4362 37.7493 41.6892C37.7177 41.7209 37.6225 41.8473 37.5907 41.8631C37.3368 42.1478 37.4954 41.974 37.305 42.1164L37.0196 42.3534C36.9877 42.3851 36.9401 42.4009 36.9083 42.4326L36.7021 42.5907C36.2578 42.9546 36.369 43.0021 36.1625 43.4607L36.0833 43.698C35.0201 46.4816 34.3856 46.4816 31.2594 47.6678C30.6725 47.8734 31.2912 47.7945 30.6089 47.8419C29.7521 47.9209 30.1488 47.4305 29.4188 47.9209C28.7525 48.332 29.292 48.332 28.7206 48.7909C27.8481 49.4868 27.721 48.5061 26.0548 50.1827C25.7694 50.4989 25.3885 50.6255 24.976 50.6255C24.0714 50.5938 24.7379 50.1035 23.5796 50.8786C23.5002 49.9454 23.7541 50.5464 23.2463 50.3408C23.0877 50.9103 23.1194 50.7994 22.6592 51.1633C21.5961 51.9541 22.453 50.926 20.9296 52.6026C20.8979 52.6343 20.8027 52.729 20.7551 52.7764L20.2156 53.4409C20.1839 53.4726 20.1045 53.599 20.0569 53.6464C19.2318 54.5796 17.4546 54.1842 17.4546 56.9995H16.9151C16.8358 56.2719 16.7406 56.0506 16.7406 55.07C15.8361 55.6552 15.5346 57.1734 15.5029 58.2175C16.0741 58.4231 15.6616 57.9327 15.9631 58.6604C16.2804 59.4352 16.2011 60.1786 15.8361 60.827C15.6616 61.1909 15.5505 61.4123 15.5029 61.7762V63.0414C15.5505 63.4527 15.6616 63.3261 16.0741 63.8164C16.566 64.4649 16.2011 64.4649 16.9786 65.3664C17.0103 65.3981 17.0579 65.4138 17.0738 65.4455C17.2801 65.6986 17.3118 65.7778 17.5181 66.0623C18.2163 66.964 18.5019 66.5051 18.5019 68.5771H18.1369C17.8989 67.5018 17.2642 66.5686 16.2011 66.2838C16.2011 67.9129 16.6454 66.8216 16.7406 68.0393C16.328 67.7863 16.566 67.8337 16.0424 67.7073C15.9631 68.6088 16.2011 68.0236 15.6774 68.2291C16.8199 69.9217 18.5971 70.5701 19.0414 72.7527C19.2159 73.7334 20.2474 74.2395 20.6123 75.062C20.8186 75.5206 20.533 75.1727 20.8979 75.6313C21.0725 75.8368 21.2311 75.9477 21.4374 76.1533C21.85 76.6437 21.8976 76.8967 22.0245 77.6715C22.6116 81.3726 24.8647 82.1477 25.1028 84.362L25.1346 85.6746C25.0076 86.4497 25.2298 86.3233 25.4203 87.0824C25.5947 87.7783 25.309 88.1105 25.1664 88.7115C24.6427 88.7115 24.5475 88.6323 24.1349 88.5534C24.1349 89.8186 24.0873 90.9733 25.2138 90.9416C26.6896 90.9099 27.1975 92.7448 29.6253 92.3334C30.371 92.207 31.6403 92.3809 32.3069 92.0014C33.005 91.59 33.0842 91.1789 33.3381 90.8941C33.3699 90.8624 33.3857 90.8467 33.4175 90.8152L33.6714 90.5305C33.7032 90.4987 33.7984 90.3723 33.83 90.3564L34.3537 90.0401C34.7662 89.9927 35.4168 90.0401 35.5914 89.4232C35.5914 89.4232 35.6232 89.1386 35.6232 89.0912C35.8771 88.1105 37.2734 88.142 38.1778 87.8258L40.1931 87.541C40.3517 87.541 40.3993 87.5727 40.6056 87.5727C41.2561 87.5253 40.4312 87.4621 41.0657 87.4621L41.3198 87.541C41.3513 87.541 41.3671 87.5727 41.399 87.5885C42.0179 87.8732 40.9389 87.7466 42.0495 87.8258C42.2081 87.4461 42.4146 87.2405 43.5252 87.2563C44.271 87.2563 45.5721 87.7941 46.1277 85.4216C46.2069 85.0579 46.2069 84.8366 46.4607 84.5201C46.905 83.9983 47.1907 84.2354 47.8731 83.8242C50.6657 82.1951 49.5708 81.9264 52.7602 81.8629C53.9978 81.8314 55.0611 81.2777 56.1241 80.8348C58.187 80.0125 57.9808 79.4115 61.1859 79.4115C62.2968 79.3798 62.392 79.2849 63.2012 79.1268C63.9788 79.0001 65.5179 80.2338 66.1208 80.6135C67.1205 80.3605 66.5809 79.8859 67.8186 80.6609C68.5644 81.1038 69.0881 80.9457 69.9609 81.1513C70.1988 81.6891 70.0401 81.183 69.9609 82.021C70.5321 81.8946 70.5321 81.784 71.024 82.021C70.8653 82.4007 70.6907 82.2743 70.5797 82.6697L70.9445 83.6661C71.3888 84.0458 71.7221 83.6344 72.1506 84.2039C72.5155 84.6468 72.4361 84.9473 73.0869 85.7538C73.4675 86.2124 73.6104 86.7819 73.658 87.4461C73.6261 87.4461 73.5788 87.4146 73.5788 87.4461C73.5788 87.4778 73.4993 87.4778 73.4993 87.4778C73.4675 87.4778 73.4199 87.5096 73.4041 87.5096L72.9598 87.9682C74.0228 88.0788 73.7374 88.7432 74.6894 88.9646C75.0227 89.012 74.7212 88.9328 75.0543 89.0437C75.0543 89.0437 75.1019 89.1227 75.4194 89.2018L75.2923 88.5059C75.1655 87.9682 75.3718 87.81 76.3238 86.6078C76.9743 85.7855 78.1802 85.7855 78.6721 84.8838C78.9578 84.3463 79.0372 83.9823 79.4497 83.5712C79.894 83.1126 79.5768 83.745 79.8306 83.0809C80.0368 83.3182 79.7512 82.9542 80.0684 83.3656C80.2273 83.5712 80.2431 83.6029 80.3541 83.7768C79.8306 83.8242 79.9098 83.8559 79.6559 84.109C80.0211 84.8998 80.0368 84.8049 79.6244 85.2952C78.9736 86.086 78.6881 87.1456 78.7515 88.0471C78.7834 89.0752 78.5135 88.8382 77.5297 88.8382C77.371 89.4866 77.244 89.3282 77.1648 90.0716C77.8311 90.0244 77.9582 89.8346 78.4025 89.7079C79.1482 89.5341 79.2277 90.1191 79.6402 89.1861L80.3383 87.0824L80.6716 87.6202C80.7032 87.6677 80.7032 87.7151 80.7192 87.7466L80.846 87.9839C80.8778 88.0156 80.8936 88.0631 80.8936 88.0788C81.8775 90.0559 80.2431 90.1191 80.1479 91.2738H79.275V90.7518C78.323 90.7518 77.8311 90.8784 77.133 91.084C75.8477 91.4162 76.4032 91.7007 76.8157 92.3177C79.275 92.3177 78.4659 92.1121 79.8622 91.8748C80.4335 91.7641 80.4812 91.954 80.1479 91.2581C80.9255 91.2581 81.1793 91.0997 81.9093 90.9259C81.9409 90.9573 81.9885 90.9573 82.0045 91.0048C82.0045 91.0523 82.0837 91.0523 82.1155 91.084C83.1946 92.0172 84.3686 93.2191 83.8767 94.8168C83.8767 94.8482 83.8451 94.8957 83.8451 94.9274L83.7975 95.7972C83.9243 96.3192 84.2894 96.5723 84.5433 96.9045L85.2733 98.0907C85.8126 98.6759 86.622 98.4229 87.2407 99.1188L87.7326 99.6881C88.2563 99.5142 88.2563 99.3087 88.7959 99.4508L89.1765 99.6091C89.2241 99.6406 89.2878 99.6406 89.3352 99.6566C89.7955 99.783 89.5732 99.6249 90.0017 99.8622C90.335 100.036 91.779 100.859 91.9376 101.254C92.9214 101.175 94.8096 98.7549 95.2697 100.558C96.1426 100.479 96.1744 99.9411 96.8725 99.8622L96.7455 100.099C96.5074 100.621 96.6184 99.783 96.5074 100.748L97.3326 101.491C97.3802 101.539 97.5707 101.729 97.5865 101.744L98.126 101.95C98.3004 102.108 98.3641 102.393 98.4433 102.677C99.0146 102.519 99.1732 101.95 98.967 101.444C101.03 101.444 101.633 99.3876 103.823 99.4668C105.235 99.5457 106.346 99.9571 107.393 99.1346L107.758 98.6442C108.011 98.0275 107.758 97.8691 107.869 97.3314L108.805 94.785C109.535 92.8869 110.217 92.8554 110.661 92.5232C111.185 92.0804 110.788 92.3968 110.836 92.0646C110.836 92.0329 110.836 91.9855 110.836 91.938L110.947 91.4794C111.201 90.8152 111.391 90.214 111.899 89.8028C112.931 88.9488 112.486 88.3636 114.041 86.687L115.041 86.1175C115.088 86.086 115.12 86.07 115.168 86.07L116.279 85.2477C116.279 85.216 116.31 85.1686 116.326 85.1211C116.501 84.7417 116.406 84.5044 116.691 84.093C117.358 83.16 118.341 82.2583 118.373 80.7716C118.373 79.8384 119.532 78.1461 119.849 77.0865C120.023 76.5487 120.166 76.2957 120.42 75.8843C120.912 75.1095 120.991 74.3661 120.864 73.3854C120.737 72.1518 120.42 71.5033 120.245 70.4752C120.039 69.7318 119.928 71.2186 120.404 70.2379C120.452 70.1113 120.484 70.1273 120.499 69.8742C120.626 68.941 120.42 68.5296 120.706 67.565C120.96 66.695 121.118 67.3594 120.706 66.5051C120.373 65.8092 120.468 66.5843 120.468 65.4773C120.468 64.4806 120.436 64.9869 120.023 64.5755C119.484 64.0063 119.738 64.1169 119.532 63.4685C119.198 62.4721 119.436 63.3419 118.802 62.6145C118.389 62.1241 118.389 61.0168 117.802 60.6532L117.485 60.5425C116.834 60.3684 116.548 59.8149 116.168 59.2614C115.929 58.9449 115.961 59.2296 115.755 58.6444C115.311 57.3318 116.326 56.8097 115.501 55.2281C114.803 55.4654 115.469 55.2598 114.803 55.7501C114.422 55.1806 114.279 55.3387 114.073 54.5479C113.295 54.7535 113.692 55.0068 113.042 55.2438C112.343 53.9312 112.883 53.2827 112.375 52.2389C111.55 50.5938 112.74 52.1123 111.217 50.404C110.963 50.1509 110.9 49.9136 110.757 49.6291H111.455C111.328 48.9807 111.042 48.4429 110.471 48.1899C109.947 47.9526 110.217 48.2373 109.852 47.8734C109.82 47.8734 109.805 47.8259 109.773 47.7945L109.392 47.478C108.773 47.0983 108.868 47.5886 108.646 46.624L108.408 46.7504C108.408 46.7504 108.329 46.7821 108.313 46.7978C107.932 46.8927 108.059 46.1019 107.694 45.6591C107.282 45.1213 107.853 45.9913 106.948 45.5327C106.457 45.2954 106.98 45.5327 106.663 45.3271C106.409 45.153 106.504 45.2322 106.298 45.153L105.98 45.0738C104.536 44.4888 104.79 44.2515 104.79 42.7805C103.553 42.4483 104.298 41.4994 104.378 40.6928C104.536 39.4117 103.759 39.2536 104.076 37.8615C102.347 37.83 103.045 36.1377 102.553 34.2871L102.474 32.5948C102.553 32.2309 102.505 32.7529 102.68 32.1045L102.22 31.8672C100.57 30.8865 100.903 30.1117 100.411 29.8109L99.2051 30.1906C98.84 30.4436 99.2051 30.3647 98.6655 30.5071C97.507 29.4315 98.0466 27.154 97.6659 25.7147C97.507 25.0977 97.3802 24.2437 96.555 24.0381C96.6821 23.5003 96.8407 23.3421 97.0788 22.9783C96.666 22.7727 96.4598 22.8202 96.0473 22.6146C96.0473 21.5074 96.0155 20.685 95.5078 19.8151C95.1745 19.2457 95.3968 19.1982 94.635 19.1191C94.4287 19.9416 94.5082 19.4513 93.7624 19.8151C93.7624 20.8115 93.6354 21.6498 93.1119 22.5197C93.1119 22.5513 93.0643 22.5987 93.0643 22.6304L92.9056 22.836C92.5405 23.3738 92.239 23.8641 92.1756 24.56H92.6991C92.6515 25.3508 92.6515 24.8922 92.3185 25.3825C91.8581 26.0784 92.1122 25.335 92.2072 26.2523C92.3185 27.1855 91.5885 27.2329 91.6679 28.2136C91.7155 28.862 91.9534 28.6564 91.9218 29.2734C91.9218 29.6371 91.7471 29.7952 91.7632 30.2855C91.8105 31.5984 92.3024 31.2662 91.7155 32.5316C91.0966 33.8442 91.3346 35.1096 90.5255 36.4223C89.9541 37.3555 89.8271 37.9724 89.6208 38.3204C89.367 38.7315 88.2721 39.1901 87.6374 39.0952C87.1931 39.0477 86.2887 38.4468 85.8602 38.2255C85.5271 38.0514 85.2733 37.9407 85.1144 37.6085C84.9081 37.2448 85.0668 37.3714 84.9081 37.0867C84.4957 36.2167 83.3372 36.2959 82.5122 35.9794C81.6552 35.6157 81.3698 34.4927 79.3545 33.6861L78.2915 33.3539C78.2596 33.3539 77.5139 32.8321 77.4662 32.7846L76.7999 32.0413C76.5934 31.8672 76.2286 31.6616 75.9747 31.456L75.2289 30.9972C74.5308 30.6177 74.6418 30.9972 74.61 30.0168C74.9909 29.8901 75.4352 29.1625 75.7685 28.7039C75.9747 28.4509 75.8161 28.6722 75.9747 28.3877L76.1333 28.008C76.1652 27.9763 76.1652 27.9288 76.181 27.9131C76.292 27.66 76.4348 27.2646 76.5458 27.0431C75.8161 26.7586 76.5776 27.1697 75.8477 26.8692C76.0539 26.4738 75.9747 26.6951 76.1333 26.1891ZM93.3339 104.813C93.3339 103.579 93.4609 103.674 92.8104 103.247C92.6357 103.974 92.7628 103.278 92.5723 103.816C92.2867 104.655 92.2709 105.382 93.3339 104.813ZM101.252 104.987L101.95 106.552C102.267 106.394 102.156 106.426 102.648 106.394C102.648 105.319 102.68 105.698 102.283 105.161C102.045 104.844 102.045 104.749 101.585 104.639C101.458 105.145 101.871 104.939 101.252 104.987ZM93.8734 107.802C93.8734 108.577 94.0797 109.352 94.3972 109.937C94.635 110.396 94.7302 110.253 94.7144 110.918C94.6826 112.183 94.54 112.547 95.0793 113.591C95.365 114.176 95.9363 114.825 96.0155 115.489C97.2532 115.489 97.0788 115.441 97.2216 115.852C98.3799 115.821 97.6341 115.599 98.2846 115.489C98.3322 115.489 99.4747 115.773 99.1574 114.287C100.03 114.524 99.6176 114.983 100.189 114.935C100.649 114.888 100.427 114.492 100.506 113.955C100.554 113.306 100.268 113.796 101.093 113.417L100.919 112.357C100.919 111.123 101.204 112.357 101.617 112.531L102.141 108.83C102.188 108.545 102.521 108.672 101.807 107.628C101.014 107.739 101.474 107.754 101.284 107.802L98.9352 108.134C98.4433 108.213 98.0784 108.419 97.7769 108.387C96.8725 108.34 96.4122 107.248 95.1429 106.995C94.8254 106.948 95.1429 107.043 94.6826 106.837C94.0639 106.584 94.8415 106.758 94.0957 106.552C94.0163 107.391 93.8734 107.153 93.8734 107.802Z" fill="#008F55"/>
<path d="M36.9295 70.6864H48.0852C50.8976 70.6864 51.7413 72.1347 51.2257 74.611C50.7101 77.0872 49.2102 78.5356 46.3978 78.5356H27.2737C24.7895 78.5356 23.7113 76.6667 24.1332 74.6577C24.7426 71.761 25.7738 70.2659 35.664 64.2856L40.7731 61.202C43.398 59.6134 44.5229 58.3052 44.9448 56.3897C45.4135 54.1003 44.1948 52.6052 41.6637 52.6052C36.3202 52.6052 37.7264 59.0995 32.4297 59.0995C29.0549 59.0995 28.2112 57.2306 28.7737 54.5675C29.758 50.0823 35.1484 45.3167 43.4917 45.3167C53.4756 45.3167 55.8192 50.7364 54.6943 55.9224C53.8506 59.847 51.2726 62.6503 46.5384 65.2667L36.9295 70.5929V70.6864ZM66.6922 74.097L67.1609 71.8544H56.099C52.9116 71.8544 52.1617 69.6585 52.771 66.8552C53.146 65.1265 54.2241 63.538 56.8489 61.0618L69.1296 49.288C72.5044 46.111 74.0981 45.0364 76.5355 45.0364C80.0509 45.0364 81.5977 46.952 80.9415 49.9888L77.8479 64.5659C80.6134 64.5659 82.1602 65.4069 81.5508 68.2101C80.9415 71.0601 79.0197 71.8544 76.2542 71.8544L75.7855 74.097C75.1293 77.1806 73.2075 79.1429 70.1608 79.1429C67.1141 79.1429 66.036 77.1806 66.6922 74.097ZM68.7546 64.5659L70.8639 54.5208H70.7701L60.9737 64.5659H68.7546ZM99.736 53.4929H86.7054C83.9399 53.4929 82.8618 52.0446 83.3305 49.7085C83.8461 47.3724 85.5804 45.9241 88.3459 45.9241H106.626C109.532 45.9241 111.032 46.9987 110.376 50.0356C110.001 51.811 108.736 53.3528 104.704 56.8101C102.361 58.8192 97.0173 65.9208 94.7206 72.5552C92.7051 78.4888 90.1271 79.1429 87.7366 79.1429C85.6742 79.1429 83.9867 77.2741 84.5023 74.8446C85.8148 68.7708 95.658 56.4831 99.736 53.4929Z" fill="#EFD703"/>
<path d="M155.39 66.0106L163.593 27.6254C165.406 19.3632 169.724 15.8345 177.408 15.8345H194.245C214.882 15.8345 221.098 29.6049 217.472 46.818C213.759 64.0311 201.671 77.8016 181.035 77.8016H164.198C156.513 77.8016 153.663 74.2729 155.39 66.0106ZM175.509 62.3098H179.912C191.396 62.3098 195.454 56.6295 197.613 46.818C199.685 37.0065 198.045 31.3262 186.561 31.3262H182.157L175.509 62.3098ZM222.421 55.2524C225.875 38.986 238.568 31.6704 252.728 31.6704C266.889 31.6704 276.473 38.986 273.019 55.2524C269.479 71.6049 256.786 78.9204 242.626 78.9204C228.465 78.9204 218.881 71.6049 222.421 55.2524ZM255.146 55.7688C256.873 47.3344 254.973 43.5475 250.224 43.5475C245.475 43.5475 241.849 47.3344 240.122 55.7688C238.481 63.2565 240.467 67.0434 245.216 67.0434C249.965 67.0434 253.505 63.2565 255.146 55.7688ZM279.929 55.2524C283.383 38.986 296.076 31.6704 310.236 31.6704C322.67 31.6704 329.577 37.609 328.282 43.8057C327.419 47.8508 324.051 50.3467 320.511 50.3467C315.935 50.3467 315.244 44.0639 308.941 44.0639C301.688 44.0639 298.839 50.0885 297.802 54.9081C296.507 60.7606 297.198 66.527 303.415 66.527C309.373 66.527 313.344 60.2442 318.266 60.2442C322.497 60.2442 324.224 63.6868 323.533 66.7852C322.756 70.3999 315.935 78.9204 300.134 78.9204C285.973 78.9204 276.389 71.6049 279.929 55.2524ZM342.815 32.7893L344.024 27.109C345.405 20.9984 349.032 18.2443 354.558 18.2443C360.084 18.2443 362.674 20.9984 361.293 27.109L360.084 32.7893H365.265C368.805 32.7893 370.445 34.4245 369.754 37.9532C368.977 41.4819 366.646 43.1172 363.106 43.1172H357.925L353.694 62.654L353.435 63.945C353.176 65.3221 353.867 66.0106 354.99 66.0106C361.724 66.0106 363.279 68.0762 362.415 72.2073C361.638 75.8221 358.702 78.9204 348.514 78.9204C338.498 78.9204 334.094 73.9286 336.253 63.859L340.656 43.1172H337.375C333.835 43.1172 332.195 41.4819 332.972 37.9532C333.662 34.4245 335.994 32.7893 339.534 32.7893H342.815ZM369.476 55.2524C372.929 38.986 385.622 31.6704 399.783 31.6704C413.943 31.6704 423.527 38.986 420.074 55.2524C416.533 71.6049 403.841 78.9204 389.68 78.9204C375.52 78.9204 365.936 71.6049 369.476 55.2524ZM402.2 55.7688C403.927 47.3344 402.028 43.5475 397.279 43.5475C392.53 43.5475 388.903 47.3344 387.176 55.7688C385.536 63.2565 387.522 67.0434 392.271 67.0434C397.02 67.0434 400.56 63.2565 402.2 55.7688ZM424.739 70.1418L431.042 40.4491C432.337 34.4245 436.654 31.6704 440.971 31.6704C445.375 31.6704 448.397 34.0803 447.015 40.7934L446.238 44.236H446.411C451.16 36.0598 455.564 31.6704 460.658 31.6704C466.098 31.6704 467.047 35.9737 466.184 39.8467C465.234 44.236 462.816 46.9901 459.622 47.7647L454.527 48.9696C449.519 50.1745 446.411 51.9819 445.116 57.8344L442.526 70.1418C441.23 76.1663 436.913 78.9204 431.732 78.9204C426.552 78.9204 423.443 76.1663 424.739 70.1418Z" fill="#008F55"/>
<path d="M173.373 117.686H169.117L169.367 111.696L169.326 109.366L164.777 109.283L160.687 109.366L160.646 111.321L160.812 117.686H156.556L156.806 111.696L156.556 97.6363H160.896L160.729 105.872L165.027 105.997L169.284 105.872L169.117 97.6363H173.457L173.206 111.321L173.373 117.686ZM183.655 102.919C185.881 102.919 187.55 103.543 188.663 104.791C189.775 106.039 190.332 107.883 190.332 110.323C190.332 112.763 189.72 114.663 188.496 116.022C187.299 117.353 185.602 118.019 183.404 118.019C181.234 118.019 179.579 117.394 178.438 116.147C177.326 114.871 176.769 113.013 176.769 110.573C176.769 108.132 177.367 106.247 178.564 104.915C179.76 103.584 181.457 102.919 183.655 102.919ZM183.53 105.706C182.528 105.706 181.805 106.053 181.36 106.746C180.915 107.411 180.692 108.59 180.692 110.282C180.692 111.973 180.915 113.221 181.36 114.025C181.805 114.802 182.542 115.19 183.571 115.19C184.601 115.19 185.338 114.871 185.783 114.233C186.228 113.595 186.451 112.431 186.451 110.739C186.451 109.048 186.214 107.786 185.741 106.954C185.269 106.122 184.531 105.706 183.53 105.706ZM210.774 108.659C210.802 107.134 210.148 106.371 208.813 106.371C207.867 106.371 206.879 106.788 205.85 107.619L205.808 111.321L205.933 117.686H201.802L202.052 108.659C202.052 107.134 201.385 106.371 200.049 106.371C199.103 106.371 198.102 106.788 197.045 107.619V111.321L197.253 117.686H193.122L193.331 111.696L193.164 103.46L197.086 103.127V105.248H197.295C198.491 104.194 199.743 103.446 201.051 103.002C203.416 103.002 204.918 103.779 205.558 105.332H205.683C206.907 104.222 208.27 103.446 209.773 103.002C211.358 103.002 212.555 103.363 213.362 104.084C214.196 104.805 214.599 105.831 214.572 107.162L214.488 111.321L214.655 117.686H210.524L210.774 108.659ZM221.118 110.989C221.285 113.623 222.565 114.94 224.958 114.94C226.321 114.94 227.726 114.552 229.172 113.776L229.506 114.025L228.964 117.062C227.517 117.672 226.056 117.991 224.582 118.019C222.273 118.019 220.479 117.353 219.199 116.022C217.919 114.691 217.279 112.861 217.279 110.531C217.279 108.174 217.919 106.33 219.199 104.999C220.506 103.64 222.162 102.961 224.165 102.961C226.168 102.961 227.656 103.473 228.63 104.5C229.632 105.498 230.132 106.884 230.132 108.659C230.132 109.214 230.09 109.782 230.007 110.365L229.381 110.947L221.118 110.989ZM224.29 105.664C223.483 105.664 222.801 105.928 222.245 106.455C221.716 106.982 221.369 107.73 221.202 108.701L226.46 108.534L226.543 108.202C226.515 106.51 225.764 105.664 224.29 105.664ZM242.19 117.686L236.056 97.6363H240.354L240.813 100.257L244.653 113.776H244.945L249.326 100.465L249.869 97.6363H254.043L247.239 117.686H242.19ZM258.126 96.0972C258.794 96.0972 259.308 96.2912 259.67 96.6795C260.033 97.04 260.213 97.5669 260.213 98.2601C260.213 98.9258 260.018 99.4665 259.628 99.8823C259.239 100.298 258.696 100.506 258 100.506C257.334 100.506 256.804 100.326 256.416 99.9657C256.054 99.5774 255.874 99.0505 255.874 98.385C255.874 97.7194 256.081 97.1787 256.498 96.7626C256.915 96.319 257.457 96.0972 258.126 96.0972ZM260.087 117.686H255.916L256.123 111.696L255.955 103.46L260.129 103.127L259.838 111.321L260.087 117.686ZM268.438 102.961C270.024 102.933 271.443 103.169 272.696 103.668L272.153 106.704L271.652 106.871C270.402 106.067 269.259 105.664 268.231 105.664C267.73 105.664 267.325 105.803 267.019 106.08C266.743 106.33 266.602 106.649 266.602 107.037C266.602 107.425 266.797 107.758 267.187 108.035C267.577 108.313 268.189 108.618 269.023 108.95C269.859 109.283 270.54 109.616 271.068 109.949C271.625 110.254 272.096 110.684 272.486 111.238C272.876 111.765 273.071 112.444 273.071 113.276C273.071 114.108 272.864 114.885 272.444 115.606C271.472 117.214 269.733 118.019 267.229 118.019C265.727 118.019 264.168 117.7 262.554 117.062L263.055 113.817L263.432 113.568C264.071 114.122 264.794 114.566 265.601 114.899C266.408 115.204 267.103 115.356 267.688 115.356C268.273 115.356 268.717 115.218 269.023 114.94C269.329 114.663 269.481 114.33 269.481 113.942C269.481 113.526 269.287 113.179 268.899 112.902C268.509 112.597 267.898 112.278 267.061 111.945C266.228 111.585 265.547 111.252 265.016 110.947C263.682 110.198 263.013 109.103 263.013 107.661C263.013 106.219 263.514 105.082 264.515 104.25C265.547 103.39 266.854 102.961 268.438 102.961ZM278.01 96.0972C278.678 96.0972 279.192 96.2912 279.554 96.6795C279.917 97.04 280.097 97.5669 280.097 98.2601C280.097 98.9258 279.902 99.4665 279.512 99.8823C279.122 100.298 278.58 100.506 277.884 100.506C277.218 100.506 276.69 100.326 276.3 99.9657C275.938 99.5774 275.757 99.0505 275.757 98.385C275.757 97.7194 275.965 97.1787 276.382 96.7626C276.801 96.319 277.344 96.0972 278.01 96.0972ZM279.971 117.686H275.799L276.007 111.696L275.841 103.46L280.013 103.127L279.722 111.321L279.971 117.686ZM289.659 114.607C290.298 114.607 290.981 114.441 291.704 114.108L292.037 114.441L291.62 116.854C290.591 117.408 289.521 117.741 288.406 117.852C285.596 117.575 284.177 116.216 284.15 113.776L284.318 111.155V105.789H282.357L282.189 105.623L282.399 103.335H284.234V100.922L288.031 99.7161L288.324 99.9657L288.198 103.335H291.953L292.079 103.543L291.911 105.789H288.157L287.989 112.777C287.989 113.443 288.1 113.914 288.324 114.192C288.573 114.469 289.02 114.607 289.659 114.607ZM298.834 102.961C300.417 102.933 301.836 103.169 303.089 103.668L302.546 106.704L302.046 106.871C300.795 106.067 299.653 105.664 298.624 105.664C298.123 105.664 297.719 105.803 297.413 106.08C297.136 106.33 296.996 106.649 296.996 107.037C296.996 107.425 297.191 107.758 297.58 108.035C297.97 108.313 298.582 108.618 299.416 108.95C300.252 109.283 300.933 109.616 301.461 109.949C302.019 110.254 302.49 110.684 302.879 111.238C303.269 111.765 303.464 112.444 303.464 113.276C303.464 114.108 303.257 114.885 302.838 115.606C301.866 117.214 300.126 118.019 297.622 118.019C296.12 118.019 294.561 117.7 292.947 117.062L293.448 113.817L293.826 113.568C294.465 114.122 295.187 114.566 295.994 114.899C296.801 115.204 297.497 115.356 298.081 115.356C298.666 115.356 299.11 115.218 299.416 114.94C299.722 114.663 299.875 114.33 299.875 113.942C299.875 113.526 299.68 113.179 299.292 112.902C298.903 112.597 298.291 112.278 297.455 111.945C296.621 111.585 295.94 111.252 295.409 110.947C294.075 110.198 293.406 109.103 293.406 107.661C293.406 106.219 293.907 105.082 294.909 104.25C295.94 103.39 297.247 102.961 298.834 102.961ZM317.911 108.202H322.961L323.252 108.451L323.042 110.989H317.911V116.105L315.365 116.313L315.074 116.063V110.989H309.982L309.73 110.698L309.898 108.202H315.074V103.002L317.575 102.794L317.911 103.085V108.202ZM343.669 101.13L339.914 100.922H338.619L338.495 111.321L338.661 117.686H334.447L334.654 111.696L334.489 100.922H333.236L329.397 101.13L329.106 100.756L329.397 97.6363H343.669L343.92 97.969L343.669 101.13ZM349.101 110.989C349.269 113.623 350.549 114.94 352.942 114.94C354.304 114.94 355.71 114.552 357.156 113.776L357.489 114.025L356.946 117.062C355.5 117.672 354.04 117.991 352.565 118.019C350.255 118.019 348.462 117.353 347.182 116.022C345.901 114.691 345.262 112.861 345.262 110.531C345.262 108.174 345.901 106.33 347.182 104.999C348.489 103.64 350.144 102.961 352.148 102.961C354.151 102.961 355.638 103.473 356.613 104.5C357.614 105.498 358.115 106.884 358.115 108.659C358.115 109.214 358.073 109.782 357.989 110.365L357.365 110.947L349.101 110.989ZM352.273 105.664C351.467 105.664 350.786 105.928 350.228 106.455C349.7 106.982 349.353 107.73 349.185 108.701L354.442 108.534L354.526 108.202C354.499 106.51 353.749 105.664 352.273 105.664ZM365.215 117.686H361.083L361.293 111.654L361.125 96.1387L365.257 95.806L365.008 111.321L365.215 117.686ZM371.995 110.989C372.162 113.623 373.44 114.94 375.833 114.94C377.197 114.94 378.601 114.552 380.049 113.776L380.382 114.025L379.84 117.062C378.394 117.672 376.933 117.991 375.458 118.019C373.149 118.019 371.356 117.353 370.075 116.022C368.795 114.691 368.156 112.861 368.156 110.531C368.156 108.174 368.795 106.33 370.075 104.999C371.383 103.64 373.038 102.961 375.041 102.961C377.044 102.961 378.532 103.473 379.506 104.5C380.508 105.498 381.009 106.884 381.009 108.659C381.009 109.214 380.967 109.782 380.883 110.365L380.256 110.947L371.995 110.989ZM375.167 105.664C374.36 105.664 373.677 105.928 373.122 106.455C372.592 106.982 372.246 107.73 372.078 108.701L377.336 108.534L377.419 108.202C377.392 106.51 376.64 105.664 375.167 105.664ZM390.697 106.371C389.917 106.371 389.012 106.788 387.983 107.619L387.899 111.321L388.109 117.686H383.977L384.186 111.654L384.019 96.1387L388.151 95.806L388.025 105.248H388.193C389.332 104.194 390.571 103.446 391.906 103.002C393.492 103.002 394.703 103.363 395.537 104.084C396.371 104.805 396.775 105.831 396.748 107.162L396.664 111.321L396.83 117.686H392.658L392.907 108.659C392.964 107.134 392.226 106.371 390.697 106.371ZM403.261 110.989C403.426 113.623 404.707 114.94 407.1 114.94C408.461 114.94 409.868 114.552 411.313 113.776L411.649 114.025L411.106 117.062C409.658 117.672 408.197 117.991 406.725 118.019C404.416 118.019 402.62 117.353 401.339 116.022C400.061 114.691 399.42 112.861 399.42 110.531C399.42 108.174 400.061 106.33 401.339 104.999C402.647 103.64 404.302 102.961 406.305 102.961C408.309 102.961 409.799 103.473 410.771 104.5C411.772 105.498 412.273 106.884 412.273 108.659C412.273 109.214 412.231 109.782 412.15 110.365L411.523 110.947L403.261 110.989ZM406.431 105.664C405.624 105.664 404.944 105.928 404.386 106.455C403.858 106.982 403.51 107.73 403.342 108.701L408.602 108.534L408.686 108.202C408.656 106.51 407.906 105.664 406.431 105.664ZM420.416 102.919C422.281 102.919 423.673 103.279 424.591 104C425.508 104.721 425.967 105.72 425.967 106.995C425.967 107.356 425.898 108.534 425.76 110.531C425.76 110.531 425.718 111.668 425.634 113.942C425.634 114.303 425.676 114.552 425.76 114.691C425.841 114.802 426.009 114.857 426.261 114.857C426.51 114.857 426.801 114.815 427.137 114.732L427.47 114.982L427.053 117.145C426.384 117.561 425.634 117.824 424.8 117.935C423.463 117.824 422.656 117.062 422.378 115.647H422.17C421.112 116.757 420.041 117.533 418.956 117.977C417.454 117.949 416.272 117.547 415.409 116.771C414.548 115.994 414.116 114.954 414.116 113.651C414.116 111.626 415.186 110.406 417.33 109.99L422.129 109.117V107.827C422.129 106.469 421.49 105.789 420.209 105.789C418.929 105.789 417.426 106.385 415.702 107.578L415.369 107.411L414.908 104.666C416.746 103.501 418.581 102.919 420.416 102.919ZM418.791 111.904C418.149 112.042 417.831 112.431 417.831 113.069C417.831 114.316 418.371 114.94 419.457 114.94C420.264 114.94 421.127 114.455 422.045 113.484L422.129 111.155L418.791 111.904ZM434.375 117.686H430.242L430.452 111.654L430.284 96.1387L434.417 95.806L434.165 111.321L434.375 117.686ZM444.243 114.607C444.882 114.607 445.562 114.441 446.285 114.108L446.621 114.441L446.204 116.854C445.173 117.408 444.102 117.741 442.989 117.852C440.179 117.575 438.761 116.216 438.734 113.776L438.899 111.155V105.789H436.938L436.773 105.623L436.98 103.335H438.818V100.922L442.614 99.7161L442.905 99.9657L442.782 103.335H446.537L446.663 103.543L446.495 105.789H442.74L442.572 112.777C442.572 113.443 442.683 113.914 442.905 114.192C443.157 114.469 443.601 114.607 444.243 114.607ZM455.67 106.371C454.89 106.371 453.985 106.788 452.956 107.619L452.872 111.321L453.082 117.686H448.95L449.159 111.654L448.992 96.1387L453.124 95.806L452.998 105.248H453.166C454.305 104.194 455.544 103.446 456.878 103.002C458.465 103.002 459.676 103.363 460.51 104.084C461.344 104.805 461.748 105.831 461.719 107.162L461.637 111.321L461.803 117.686H457.631L457.88 108.659C457.937 107.134 457.199 106.371 455.67 106.371Z" fill="#008F55"/>
</g>
<defs>
<clipPath id="clip0_11_15">
<rect width="467" height="135" fill="white" transform="translate(0.0523071)"/>
</clipPath>
</defs>
</svg>
