<svg width="175" height="50" viewBox="0 0 175 50" fill="none" xmlns="http://www.w3.org/2000/svg">
<path d="M45.3193 0.829834H53.3373V49.1839H45.3193V0.829834Z" fill="#17313B"/>
<path d="M81.2248 33.8607C81.2248 41.3522 74.9498 42.0332 72.8582 42.0332C67.9777 42.0332 67.2804 37.6065 67.2804 35.2228V16.4941H59.2625V34.8823C59.2625 39.3091 60.6569 43.3953 63.4457 45.779C65.886 48.1626 69.0235 49.1842 72.8582 49.1842C75.647 49.1842 79.1331 48.5031 81.2248 46.46V49.1842H89.2427V16.4941H81.2248V33.8607Z" fill="#17313B"/>
<path d="M104.93 4.57568H96.9124V16.4939H90.9861V23.9854H96.9124V49.184H104.93V23.9854H110.857V16.4939H104.93V4.57568Z" fill="#17313B"/>
<path d="M135.958 39.3087C134.215 40.6708 131.774 41.6924 129.334 41.6924C123.757 41.6924 119.922 37.6061 119.922 32.1578C119.922 26.7094 123.757 22.9637 129.334 22.9637C131.774 22.9637 134.215 23.6447 135.958 25.3473L137.004 26.3689L142.581 21.2611L141.187 20.2395C138.049 17.5154 133.866 15.8127 129.334 15.8127C119.573 15.8127 112.252 22.9637 112.252 32.4983C112.252 42.0329 119.573 49.1838 129.334 49.1838C133.866 49.1838 138.049 47.4812 141.187 44.7571L142.581 43.7355L137.004 38.2871L135.958 39.3087Z" fill="#17313B"/>
<path d="M170.817 19.218C168.377 16.8343 165.937 15.8128 162.102 15.8128C159.313 15.8128 156.524 16.4938 154.433 18.5369V0.829834H146.415V49.1839H154.433V31.1362C154.433 23.6448 159.662 22.9637 161.753 22.9637C166.634 22.9637 166.285 27.3905 166.285 29.7741V48.8433H174.303V30.1147C174.303 25.6879 173.257 21.6016 170.817 19.218Z" fill="#17313B"/>
<path d="M128.984 37.9465C132.065 37.9465 134.562 35.5072 134.562 32.4981C134.562 29.4891 132.065 27.0498 128.984 27.0498C125.904 27.0498 123.407 29.4891 123.407 32.4981C123.407 35.5072 125.904 37.9465 128.984 37.9465Z" fill="#EF4335"/>
<path d="M34.1636 37.2649C31.3747 39.989 27.1914 41.6916 22.6595 41.6916C13.9443 41.6916 7.66938 34.8812 7.66938 25.6872C7.66938 16.4931 13.9443 9.68265 23.0081 9.68265C27.1914 9.68265 31.3747 11.3853 34.5122 14.45L35.558 15.4715L40.7871 10.3637L39.7413 9.34213C35.2094 4.91536 29.2831 2.53171 23.0081 2.53171C9.76103 2.19119 0 12.4068 0 25.6872C0 38.9675 9.76103 49.1831 22.6595 49.1831C28.9345 49.1831 35.2094 46.7995 39.3927 42.3727L40.4385 41.3511L35.2094 36.2433L34.1636 37.2649Z" fill="#17313B"/>
</svg>
